<?xml version="1.0" encoding="utf-8"?>
<!-- Generator: Adobe Illustrator 27.1.1, SVG Export Plug-In . SVG Version: 6.00 Build 0)  -->
<svg version="1.1" id="Layer_1" xmlns="http://www.w3.org/2000/svg" xmlns:xlink="http://www.w3.org/1999/xlink" x="0px" y="0px"
	 viewBox="0 0 359.6 117.6" style="enable-background:new 0 0 359.6 117.6;" xml:space="preserve">
<style type="text/css">
	.st0{fill:none;stroke:#E88E90;stroke-width:0.34;}
	.st1{fill:#182C5C;}
	.st2{fill:#D72427;}
	.st3{fill:#F8F8F8;}
</style>
<g>
	<g>
		<path vector-effect="non-scaling-stroke" class="st0" d="M53.7,10.2c0.1,0.6,0,1.1-0.2,1.7c0,0.1,0,0.2,0,0.3
			c0.3,0.3,0.4,0.7,0.4,1.1c0,0.5-0.3,1.2-0.3,1.7c0,3.4,0,6.8,0,10.1c0,0.1,0,0.1,0.1,0.2c1,0.3,1.4,0.9,1.3,1.8
			c0,0.3-0.3,0.8-0.3,1c0,0.5,0,1,0,1.5c0,0.1,0.1,0.2,0.2,0.3l25.8,10.6c0,0,0.1,0,0.1,0c0,0,0,0,0,0c-0.6-6.1-2.7-11.6-6.2-16.6
			c-0.1-0.2-0.2-0.4-0.2-0.6l0-7.6c0-0.1,0-0.1-0.1-0.1L46.5,5C46.4,5,46.3,5,46.1,5L18.4,15.6c0,0-0.1,0.1-0.1,0.1c0,2.5,0,5,0,7.6
			c0,0.3-0.1,0.5-0.2,0.6C14.7,28.8,12.7,34.1,12,40c0,0.1,0,0.2,0.2,0.1L38,29.7c0,0,0.1,0,0.1-0.1c0.1-0.7,0.1-1.3-0.1-2
			c-0.4-1.1-0.2-2,1.1-2.3c0.1,0,0.2-0.1,0.2-0.2c0-3.4,0-6.7,0-10.1c0-0.4-0.1-0.8-0.2-1.1c-0.2-0.7,0-1.3,0.4-1.8
			c0-0.1,0.1-0.1,0-0.2c0-0.2-0.1-0.3-0.2-0.5c0,0,0-0.1,0-0.1v-1.1c0,0,0-0.1,0.1-0.1c1-0.5,2.1-0.5,3.2,0c0.1,0,0.1,0.1,0.1,0.1
			v1.1c0,0.1,0,0.1,0,0.1c-0.1,0.1-0.1,0.2-0.1,0.3c0,0.1,0,0.1,0.1,0.1h8.2c0.1,0,0.1-0.1,0.1-0.1c0,0,0,0,0-0.1l-0.2-0.3
			c0,0,0-0.1,0-0.1v-1.1c0-0.1,0-0.1,0.1-0.1C51.7,9.6,52.4,9.8,53.7,10.2C53.7,10.1,53.7,10.1,53.7,10.2"/>
		<path vector-effect="non-scaling-stroke" class="st0" d="M46.4,117.4l45.7-30.9c0.1-0.1,0.2-0.3,0.2-0.4L92.2,82
			c0-0.1-0.1-0.1-0.1-0.1c0,0,0,0-0.1,0c-13.9,9.4-27.8,18.8-41.7,28.2c-0.1,0.1-0.2,0.2-0.2,0.3c-0.1,1.2-0.7,2-1.5,2.7
			c-2.5,1.7-5.4,0.2-5.9-2.7c0-0.1-0.1-0.3-0.2-0.3c-14-9.4-27.9-18.9-41.9-28.4c-0.1-0.1-0.1,0-0.1,0.1l-0.2,4.2
			c0,0.2,0.1,0.3,0.2,0.4l45.9,31.2C46.3,117.4,46.4,117.5,46.4,117.4"/>
	</g>
	<path class="st1" d="M75.5,14.7l-29-11.1c-0.1,0-0.2,0-0.3,0L17.1,14.7c-0.1,0-0.1,0.1-0.1,0.1c0,2.6,0,5.2,0,7.9
		c0,0.4-0.1,0.6-0.3,1c-3.5,5.1-5.5,10.7-6.1,16.9c0,0.1-0.1,0.2-0.2,0.2l-3,1.2c0,0-0.1,0-0.1,0c0,0,0,0,0,0
		c0.6-7.1,2.4-14.4,6.2-20.5c0.1-0.1,0.1-0.2,0.1-0.3v-8.5c0-0.1,0.1-0.1,0.1-0.2L46.2,0C46.3,0,46.4,0,46.5,0l32.3,12.5
		c0.1,0,0.2,0.1,0.2,0.2c0,2.5,0,4.9,0,7.4c0,0.6,0,1.1,0.3,1.6c3.8,6.2,5.7,13.5,6.1,20.7c0,0,0,0.1-0.1,0.1c0,0,0,0,0,0l-3-1.2
		c-0.1,0-0.2-0.1-0.2-0.2c-0.5-6.5-2.6-12.3-6.3-17.6c-0.1-0.2-0.2-0.5-0.2-0.9c0-2.5,0-5.1,0-7.7C75.7,14.8,75.6,14.7,75.5,14.7
		L75.5,14.7z"/>
	<path class="st2" d="M53.6,10.1c-1.2-0.3-1.9-0.5-3.1,0.1c0,0-0.1,0.1-0.1,0.1v1.1c0,0,0,0.1,0,0.1l0.2,0.3c0,0,0,0.1,0,0.1
		c0,0,0,0,0,0h-8.2c-0.1,0-0.1,0-0.1-0.1c0-0.1,0.1-0.2,0.1-0.3c0-0.1,0-0.1,0-0.1v-1.1c0-0.1,0-0.1-0.1-0.1c-1-0.5-2.1-0.5-3.2,0
		c0,0-0.1,0.1-0.1,0.1v1.1c0,0.1,0,0.1,0,0.1c0.1,0.1,0.2,0.3,0.2,0.5c0,0.1,0,0.1,0,0.2c-0.5,0.5-0.6,1.1-0.4,1.8
		c0.1,0.4,0.2,0.8,0.2,1.1c0,3.4,0,6.7,0,10.1c0,0.1-0.1,0.2-0.2,0.2c-1.2,0.4-1.5,1.2-1.1,2.3c0.2,0.6,0.3,1.3,0.1,2
		c0,0,0,0.1-0.1,0.1L12.2,40.2c-0.1,0-0.2,0-0.2-0.1c0.7-5.9,2.7-11.3,6.1-16.1c0.1-0.2,0.2-0.4,0.2-0.6c0-2.5,0-5,0-7.6
		c0-0.1,0-0.1,0.1-0.1L46.1,5C46.2,5,46.4,5,46.5,5l27.7,10.6c0,0,0.1,0.1,0.1,0.1l0,7.6c0,0.2,0.1,0.4,0.2,0.6
		c3.5,5,5.6,10.5,6.2,16.6c0,0,0,0.1-0.1,0.1c0,0,0,0,0,0L54.8,29.9c-0.1,0-0.2-0.1-0.2-0.3c0-0.5,0-1,0-1.5c0-0.3,0.3-0.7,0.3-1
		c0.1-0.9-0.3-1.5-1.3-1.8c-0.1,0-0.1-0.1-0.1-0.2c0-3.3,0-6.7,0-10.1c0-0.5,0.3-1.2,0.3-1.7c0-0.4-0.2-0.8-0.4-1.1
		c-0.1-0.1-0.1-0.2,0-0.3C53.7,11.3,53.7,10.8,53.6,10.1C53.6,10.1,53.6,10.1,53.6,10.1L53.6,10.1z"/>
	<path class="st1" d="M53.4,30.1C53.4,30.1,53.5,30.1,53.4,30.1c0,0.7,0.1,1.3,0,1.9c0,0.1,0,0.3,0,0.4c0,0.5,0,0.9,0,1.4
		c0,0.1-0.1,0.1-0.1,0.1l0,0h-1.1c0,0,0,0,0,0l0,0v0c0,0,0,0,0,0h1.1c0.1,0,0.1,0.1,0.1,0.1v1.5c0,0.1,0,0.1,0,0.2
		c0,0.1,0,0.1,0,0.2c0,0,0.1,0.1,0.1,0.2v1.5c0,0,0,0.1-0.1,0.1c-0.1,0-0.1,0.1,0,0.2c0,0,0.1,0.1,0.1,0.2c0,1,0,2,0,3
		c0,0.5,0.3,0.8,0.8,0.9c0.2,0,0.3,0.2,0.3,0.4c0,0,0,0.1,0,0.1c-0.2,0.3-0.3,0.6-0.4,0.9c0,0.1,0,0.1-0.1,0.1h-1.3
		c0,0-0.1,0-0.1,0.1v0.1c0,0,0,0,0,0h1.4c0.1,0,0.1,0.1,0.1,0.1l0,0v1.5c0,0.1,0,0.2-0.2,0.1c-0.4-0.1-0.8-0.1-1.1-0.1
		c-0.4,0.1-0.4,0.1,0,0.2c0.3,0,0.7,0,1.1,0c0.1,0,0.2,0,0.2,0.2v1.5c0,0.1,0,0.1-0.1,0.1l0,0l-1.4,0c0,0,0,0,0,0v0c0,0,0,0,0,0
		l1.4,0c0.1,0,0.1,0,0.1,0.1l0,0v1.5c0,0.2-0.1,0.2-0.2,0.2l-1.3,0c0,0-0.1,0-0.1,0v0c0,0,0,0,0,0H54c0.1,0,0.2,0.1,0.2,0.2v1.5
		c0,0.1-0.1,0.2-0.2,0.2l0,0h-1.3c0,0,0,0,0,0v0.1c0,0,0,0.1,0.1,0.1l0,0l1.3,0c0.1,0,0.2,0.1,0.2,0.2l0,1.5c0,0.1,0,0.1-0.1,0.1
		l0,0c-0.5,0-1,0-1.4,0c0,0,0,0,0,0l0,0.1c0,0,0,0,0,0l1.4,0c0.1,0,0.1,0.1,0.1,0.1l0,1.5c0,0.1,0,0.1-0.1,0.1l-1.4,0c0,0,0,0,0,0
		l0,0v0.1c0,0,0,0,0,0l1.4,0c0.1,0,0.2,0.1,0.2,0.2c0,0,0,0,0,0c0,0.6-0.2,1.7,0.2,2.1c0.4,0.5,1.2,0.2,1,1.2c0,0.1,0,0.1-0.1,0.1
		c-0.4,0-0.9,0-1.3,0l0,0v0c0,0,0,0.1,0,0.1l1.3,0c0,0,0.1,0,0.1,0.1l0,0v4c0,0.1,0,0.2,0.1,0.2l8.7,3.5c0.1,0,0.1,0,0.2,0
		c2.4-1.6,4.6-3.4,6.5-5.5c0.1-0.1,0.1-0.1,0-0.2l-15.5-6.2c-0.1,0-0.1-0.1-0.1-0.2v-6.9c0,0,0-0.1,0-0.1c0,0,0,0,0,0l19.1,7.8
		c0.1,0,0.2,0,0.2-0.1c1.3-2.2,2.4-4.5,3.2-6.9c0-0.1,0-0.2-0.1-0.2L54.8,39c0,0-0.1,0-0.1-0.1v-7.3c0,0,0-0.1,0.1-0.1c0,0,0,0,0,0
		L90.2,46c0.1,0,0.1,0.1,0.2,0.2L92.1,80c0,0.1,0,0.2-0.1,0.2l-42,28.3c0,0-0.1,0-0.1,0c0,0,0,0,0,0c-1.3-3-5.5-3.1-6.8-0.1
		c0,0.1-0.1,0.1-0.2,0.1c0,0,0,0,0,0L0.6,80c0,0-0.1-0.1-0.1-0.1l1.8-34c0-0.1,0.1-0.2,0.2-0.3L38,31.2c0,0,0.1,0,0.1,0c0,0,0,0,0,0
		v7.6c0,0.1,0,0.2-0.1,0.2l-23.2,9.2c0,0-0.1,0.1-0.1,0.1c0.8,2.5,1.9,4.8,3.2,7c0,0.1,0.1,0.1,0.2,0.1l19.1-7.6
		c0.1,0,0.1,0,0.1,0.1v6.9c0,0.1,0,0.2-0.1,0.2l-15.5,6.2c0,0-0.1,0.1-0.1,0.1c0,0,0,0,0,0c1.9,2.1,4,3.9,6.3,5.4
		c0.1,0.1,0.2,0.1,0.3,0l8.6-3.4c0.1,0,0.2-0.2,0.2-0.3c0-1.4,0-2.8,0-4.2c0-0.3,0-0.5,0.1-0.6c0.2-0.4,0.6-0.2,0.8-0.5
		c0.2-0.2,0.3-0.5,0.4-0.9c0-1,0-1.9,0-2.9c0,0,0-0.2,0-0.4c0-0.5,0-1,0-1.5c0-1,0-2.1,0-3.1c0-0.7,0-1.4,0-2c0-0.8,0-1.3,0-1.8
		c0-0.4,0-0.9,0-1.3c0-0.3,0-0.5-0.1-0.7c-0.2-0.4-0.6-1,0.1-1.2c0.8-0.3,0.7-1,0.7-1.7c0-0.2,0.1-0.4,0-0.7c-0.1-0.4,0-0.9,0-1.3
		c0-0.2,0.1-0.4,0-0.7c0-0.1,0-0.2,0-0.3c0-1.6,0-3.1,0-4.7c0,0,0-0.2,0-0.5c0-0.2,0-0.5,0-0.7c0-0.4,0-0.9,0-1.3c0-0.1,0-0.2,0-0.4
		c-0.1-0.7,0.3-2.1-0.3-2.9c-0.1-0.1-0.1-0.4,0-0.5c0,0,0.1-0.1,0.1-0.1c0.6-0.1,1.1-0.3,1.2-1c0-0.4,0-1.1,0-2c0-0.2,0-0.6,0-0.9
		c0-0.2,0-0.3,0-0.4c0-2.3,0-4.5,0-6.8c0-0.7,0-1.2-0.3-1.9c-0.1-0.2,0-0.4,0.1-0.5c0.6-0.5,0.5-1.4,0.2-2c0-0.1,0-0.2,0.1-0.2
		c0,0,0,0,0.1,0H41c0.1,0,0.2,0.1,0.2,0.1c0,0,0,0,0,0.1c-0.4,0.9-0.3,1.9,0.9,1.9c2.8,0,5.5,0,8.3,0c1.1,0,1.5-1,1-1.9
		c0-0.1,0-0.2,0.1-0.2c0,0,0,0,0,0c0.3-0.1,0.5-0.1,0.8,0c0.1,0,0.2,0.1,0.2,0.2c0,0,0,0,0,0.1c-0.2,0.4-0.4,1.6,0.1,1.9
		c0.2,0.1,0.3,0.3,0.2,0.5l0,0c-0.1,0.1-0.1,0.3-0.2,0.4c-0.1,0.3,0,0.6-0.1,0.9c0,0.1,0,0.1-0.1,0.1h-1.1h0v0.1
		c0,0.1,0,0.1,0.1,0.1h1.1c0.1,0,0.1,0,0.1,0.1l0,0v1.6c0,0.1,0,0.1-0.1,0.1l0,0c-0.4,0-0.7,0-1.1,0c0,0,0,0,0,0l0,0
		c0,0,0,0.1,0.1,0.1l1,0c0.1,0,0.1,0,0.1,0.1l0,0v1.6c0,0.1-0.1,0.2-0.2,0.2l0,0l-1,0c0,0-0.1,0-0.1,0v0c0,0,0,0,0,0h1
		c0.1,0,0.1,0.1,0.1,0.1v1.5c0,0.1,0,0.2-0.2,0.2l-1,0c0,0,0,0,0,0v0c0,0,0,0,0,0l1,0c0.1,0,0.2,0.1,0.2,0.2v3.4
		c0,0.1-0.1,0.1-0.1,0.1l0,0h-1.1c0,0,0,0,0,0v0.1c0,0,0,0,0,0h1.1c0.1,0,0.1,0,0.1,0.1c0,0.5,0,1.1,0.4,1.4
		c0.2,0.2,0.5,0.2,0.8,0.2c0.2,0,0.3,0.2,0.2,0.4c0,0,0,0.1,0,0.1c-0.6,0.8-0.3,2-0.3,3c0,0.1,0,0.1-0.1,0.2
		C53.4,30,53.4,30,53.4,30.1L53.4,30.1z M51.9,13.8c0-0.1-0.1-0.1-0.1-0.1h-11c-0.1,0-0.1,0.1-0.1,0.1l0,0c0,0.1,0.1,0.1,0.1,0.1h11
		C51.9,13.9,51.9,13.9,51.9,13.8L51.9,13.8L51.9,13.8z M43.6,19.5l-0.3,0.1c-0.1,0-0.1,0.1-0.1,0.1v6c0,0,0,0.1,0,0.1H49
		c0.1,0,0.1,0,0.1-0.1c0-1.8,0-3.6,0-5.3c0-0.4-0.1-0.6-0.3-0.8c-0.1-0.1-0.2-0.2-0.1-0.4c0.4-1,0.7-1.9,0-3
		c-0.5-0.8-1.2-1.3-2.2-1.7c-0.4-0.1-0.7-0.1-1,0.1c-1.8,1-3,2.6-1.8,4.7C43.8,19.3,43.8,19.4,43.6,19.5
		C43.6,19.5,43.6,19.5,43.6,19.5z M41.3,14.8c0,0-0.2-0.1-0.5-0.1l0,0c-0.3,0-0.5,0-0.5,0.1l0,0c0,0,0.2,0.1,0.5,0.1l0,0
		C41.1,14.9,41.3,14.9,41.3,14.8L41.3,14.8z M41.3,16.7c0,0-0.2-0.1-0.5-0.1l0,0c-0.2,0-0.5,0-0.5,0.1c0,0,0.2,0.1,0.5,0.1l0,0
		C41.1,16.8,41.3,16.8,41.3,16.7z M41.3,18.6c0,0-0.2-0.1-0.5-0.1c-0.2,0-0.5,0-0.5,0.1l0,0c0,0,0.2,0.1,0.5,0.1
		C41.1,18.7,41.3,18.7,41.3,18.6L41.3,18.6z M41.3,20.6c0,0-0.2-0.1-0.5-0.1c-0.2,0-0.5,0-0.5,0.1l0,0c0,0,0.2,0.1,0.5,0.1
		C41.1,20.6,41.3,20.6,41.3,20.6L41.3,20.6z M41.2,22.4l-0.8,0c0,0,0,0,0,0v0c0,0,0,0,0,0h0.8c0,0,0,0,0,0L41.2,22.4
		C41.2,22.5,41.2,22.4,41.2,22.4L41.2,22.4z M52.2,22.5c0,0-0.2-0.1-0.5-0.1s-0.5,0-0.5,0l0,0c0,0,0.2,0.1,0.5,0.1
		C52,22.6,52.2,22.6,52.2,22.5L52.2,22.5z M41.3,24.4c0,0-0.2-0.1-0.5-0.1l0,0c-0.3,0-0.5,0-0.5,0.1l0,0c0,0,0.2,0.1,0.5,0.1
		S41.3,24.4,41.3,24.4L41.3,24.4z M51.9,26.9c0-0.1,0-0.1-0.1-0.1h-11c-0.1,0-0.1,0-0.1,0.1l0,0v0c0,0.1,0,0.1,0.1,0.1h11
		C51.9,27,51.9,27,51.9,26.9L51.9,26.9z M40.5,28C40.5,28,40.5,28,40.5,28l-1.1-0.1c0,0-0.1,0-0.1,0.1l0,0v0c0,0,0,0.1,0.1,0.1
		L40.5,28C40.4,28.1,40.5,28.1,40.5,28L40.5,28L40.5,28z M53.3,28c0,0-0.2-0.1-0.6-0.1l0,0c-0.3,0-0.6,0-0.6,0.1
		c0,0,0.2,0.1,0.6,0.1l0,0C53,28.1,53.3,28.1,53.3,28z M51.8,34.4c0-3-2.5-5.5-5.5-5.5l0,0c-3,0-5.5,2.5-5.5,5.5s2.5,5.5,5.5,5.5
		S51.8,37.4,51.8,34.4L51.8,34.4z M40.5,30C40.5,30,40.5,29.9,40.5,30l-1.1-0.1c0,0-0.1,0-0.1,0.1l0,0c0,0,0,0.1,0.1,0.1L40.5,30
		C40.4,30.1,40.5,30,40.5,30L40.5,30L40.5,30z M53.3,30c0,0-0.3-0.1-0.6-0.1c-0.3,0-0.6,0-0.6,0.1l0,0c0,0,0.3,0.1,0.6,0.1
		C53,30.1,53.3,30,53.3,30L53.3,30z M40.6,31.9c0,0-0.3-0.1-0.6-0.1c-0.3,0-0.6,0-0.6,0.1l0,0c0,0,0.3,0.1,0.6,0.1
		C40.3,32,40.6,32,40.6,31.9L40.6,31.9z M53.2,31.9c-0.4-0.1-0.7-0.1-0.9,0c-0.1,0-0.1,0.1,0,0.1c0.4,0,0.7,0,1.1,0c0,0,0,0,0,0
		C53.3,31.9,53.3,31.9,53.2,31.9C53.2,31.9,53.2,31.9,53.2,31.9z M40.4,33.9C40.4,33.9,40.4,33.8,40.4,33.9l-1.1-0.1
		c0,0-0.1,0-0.1,0.1l0,0v0c0,0,0,0.1,0.1,0.1L40.4,33.9C40.4,34,40.4,33.9,40.4,33.9L40.4,33.9L40.4,33.9z M40.5,35.8
		C40.5,35.8,40.4,35.8,40.5,35.8L40.5,35.8l-1-0.1c0,0,0,0,0,0l0,0v0c0,0,0,0,0,0l0,0L40.5,35.8C40.4,35.9,40.5,35.9,40.5,35.8
		L40.5,35.8L40.5,35.8z M53.3,35.9c0,0-0.2-0.1-0.6-0.1c-0.3,0-0.6,0-0.6,0.1s0.2,0.1,0.6,0.1C53,35.9,53.3,35.9,53.3,35.9z
		 M40.5,37.8C40.5,37.8,40.5,37.7,40.5,37.8l-1.1-0.1c0,0-0.1,0-0.1,0.1l0,0c0,0,0,0.1,0.1,0.1L40.5,37.8
		C40.4,37.9,40.5,37.8,40.5,37.8L40.5,37.8z M53.3,37.8c0,0-0.2-0.1-0.6-0.1l0,0c-0.3,0-0.6,0-0.6,0.1c0,0,0.2,0.1,0.6,0.1l0,0
		C53,37.9,53.3,37.8,53.3,37.8z M40.4,39.7h-1c0,0,0,0,0,0v0c0,0,0,0.1,0,0h1C40.5,39.8,40.5,39.8,40.4,39.7L40.4,39.7
		C40.5,39.7,40.5,39.7,40.4,39.7z M53.2,39.7l-0.9-0.1c0,0,0,0,0,0v0c0,0,0,0,0.1,0L53.2,39.7C53.2,39.8,53.2,39.8,53.2,39.7
		C53.2,39.7,53.2,39.7,53.2,39.7L53.2,39.7L53.2,39.7z M51.9,42.5c0-0.1-0.1-0.1-0.1-0.1l0,0l-10.9,0c-0.1,0-0.1,0.1-0.1,0.1l0,0
		c0,0.1,0.1,0.2,0.1,0.2l0,0l10.9,0C51.9,42.6,51.9,42.5,51.9,42.5L51.9,42.5L51.9,42.5z M39.9,43.5c0,0-0.3-0.1-0.7-0.1l0,0
		c-0.4,0-0.7,0-0.7,0.1s0.3,0.1,0.7,0.1l0,0C39.6,43.6,39.9,43.6,39.9,43.5z M42.8,56.5h6.9c0.1,0,0.2-0.1,0.2-0.2v-8.5
		c0-2-1.6-3.7-3.6-3.7h0c-2,0-3.6,1.6-3.6,3.7l0,0v8.5C42.6,56.4,42.7,56.5,42.8,56.5L42.8,56.5z M39.9,45.4
		C39.9,45.4,39.8,45.4,39.9,45.4l-1.1-0.1c0,0-0.1,0-0.1,0.1l0,0l0,0c0,0,0,0.1,0.1,0.1L39.9,45.4C39.8,45.5,39.9,45.5,39.9,45.4
		L39.9,45.4z M39.9,47.4C39.9,47.4,39.9,47.3,39.9,47.4l-1.2,0c0,0-0.1,0-0.1,0.1v0c0,0,0,0.1,0.1,0.1L39.9,47.4
		C39.8,47.5,39.9,47.4,39.9,47.4L39.9,47.4z M39.9,49.3c0,0-0.3-0.1-0.7-0.1l0,0c-0.4,0-0.7,0-0.7,0.1l0,0c0,0,0.3,0.1,0.7,0.1
		S39.9,49.4,39.9,49.3z M39.9,51.3C39.9,51.3,39.8,51.3,39.9,51.3l-1.1-0.1c0,0-0.1,0-0.1,0l0,0c0,0,0,0.1,0.1,0.1L39.9,51.3
		C39.8,51.4,39.9,51.4,39.9,51.3L39.9,51.3L39.9,51.3z M39.8,53.2C39.8,53.2,39.8,53.1,39.8,53.2L39.8,53.2l-1.1,0
		c0,0-0.1,0-0.1,0.1l0,0v0c0,0,0,0.1,0.1,0.1l0,0L39.8,53.2C39.8,53.3,39.8,53.3,39.8,53.2L39.8,53.2L39.8,53.2z M39.9,55.2
		C39.9,55.2,39.8,55.1,39.9,55.2l-1.2-0.1c0,0-0.1,0-0.1,0.1l0,0c0,0,0,0.1,0.1,0.1L39.9,55.2C39.8,55.3,39.9,55.2,39.9,55.2
		L39.9,55.2L39.9,55.2z M51.9,57.8c0-0.1-0.1-0.1-0.1-0.1l0,0l-11,0c-0.1,0-0.1,0.1-0.1,0.1l0,0l0,0c0,0.1,0.1,0.1,0.1,0.1l0,0l11,0
		C51.8,57.9,51.9,57.9,51.9,57.8L51.9,57.8z M38.5,58.9c0,0-0.3-0.1-0.6-0.1l0,0c-0.3,0-0.6,0-0.6,0.1l0,0c0,0,0.3,0.1,0.6,0.1
		S38.5,59,38.5,58.9z M47.8,63.7C47.8,63.7,47.8,63.7,47.8,63.7c-0.1-0.1-0.1-0.1-0.1-0.1c0.5-0.5,0.9-1.2,0.9-1.8
		c-0.1-1.2-1.9-1.2-1.9,0.2c0,0.1,0,0.1,0.1,0.1c0.1,0,0.3,0,0.4,0c0,0,0.1,0,0.1-0.1c0-0.2,0.1-0.5,0.4-0.5c0.1,0,0.2,0.1,0.2,0.3
		c0.1,0.7-0.9,1.8-1.3,2.4c0,0,0,0.1,0,0.1c0,0,0,0,0,0h1.8c0.1,0,0.2-0.1,0.2-0.2l0-0.2c0-0.1-0.1-0.2-0.2-0.2L47.8,63.7L47.8,63.7
		z M50.8,62.6c-0.1,0-0.1-0.1,0-0.2c0.3-0.3,0.4-0.6,0.3-0.9c-0.2-1-1.9-0.9-1.9,0.2c0,0.1,0,0.1,0.1,0.1c0.3,0,0.5,0,0.6-0.2
		c0.1-0.1,0.3-0.2,0.4-0.1c0,0,0,0,0.1,0.1c0.5,0.7-0.7,0.6-0.5,1.2c0,0,0.1,0.1,0.1,0.1c0.7,0.1,0.5,1,0,0.9
		c-0.4-0.1-0.3-0.6-0.9-0.4c0,0-0.1,0-0.1,0.1c0.2,1.3,2,1.2,2-0.1C51.2,63,51.1,62.8,50.8,62.6L50.8,62.6z M43,63.7
		c-0.1,0-0.2,0-0.2-0.1c0,0,0-0.1,0-0.1c0.4-0.4,0.7-0.8,0.8-1.4c0.3-1.5-1.9-1.6-1.9-0.2c0,0.1,0,0.1,0.1,0.1c0.1,0,0.3,0,0.4,0
		c0.1,0,0.1,0,0.1-0.1c0-0.1,0.1-0.2,0.1-0.3c0.1-0.2,0.2-0.3,0.4-0.2c0.1,0.1,0.2,0.2,0.2,0.4c-0.1,0.8-0.9,1.7-1.4,2.2
		c0,0,0,0.1,0,0.1c0,0,0,0,0,0h1.8c0.2,0,0.3-0.1,0.3-0.3v0c0-0.2-0.1-0.2-0.3-0.2L43,63.7L43,63.7z M45.3,64.3c0.6,0,1-0.8,1-1.8
		c0-1-0.5-1.8-1-1.7l0,0c-0.6,0-1,0.8-1,1.8l0,0C44.2,63.6,44.7,64.3,45.3,64.3L45.3,64.3z M46,79.8C46,79.8,45.9,79.8,46,79.8
		L46,79.8c-4.2,0.1-8.3,0.1-12.3,0.1c-1.2,0-3.9,0.3-3.9,2.1c0,2.1,0,4.1-0.1,6.2c0,0.1,0,0.1,0.1,0.1c0,0,0,0,0,0
		c1.3-0.1,2.2-0.8,2.8-1.9c0.5-1,0.4-2.2,0.3-3.3c0-0.1,0-0.1,0.1-0.1l0,0c5.7,0,11.5,0,17.2,0c1.3,0,2-0.2,2.9-1
		c0.6-0.6,0.9-1.3,0.9-2c0-2.4,0-4.9,0-7.4c0-0.1,0.1-0.2,0.2-0.2l0,0h0.1c0.2,0,0.3,0.1,0.3,0.3c0,2.3,0,4.5,0,6.7
		c0,0.6,0.1,1.1,0.2,1.5c0.5,1.2,1.4,1.9,2.9,2.2c0.1,0,0.2,0,0.2-0.1c0,0,0,0,0,0l0-13.5c0-0.1,0-0.1-0.1-0.1c-1.2,0-2.3,0-3.5,0
		c-1.4,0-2.7,0.8-3.2,2.1c-0.1,0.3-0.2,0.9-0.2,1.8c0,2.2,0,4.4,0,6.6c0,0.1,0,0.1-0.1,0.1h-1.5c-0.1,0-0.2-0.1-0.2-0.2l0,0
		c0.1-1.4,0.2-2.6-0.9-3.7c-0.9-0.9-1.7-1-3-1c-2.7,0-5.5,0-8.2,0c-0.1,0-0.1-0.1-0.1-0.1V73c0-0.1,0.1-0.1,0.1-0.1h8.2
		c0.1,0,0.1,0.1,0.1,0.1l0,0l0,0.7c0,0.1,0,0.1,0.1,0.1c0,0,0,0,0,0c2.3-0.4,4.1-1.4,3.7-4c0-0.1-0.1-0.2-0.2-0.2H33.8
		c-0.1,0-0.2,0.1-0.2,0.2l0,0c0,1.5,0,3,0,4.4c0,0.8,0,1.3,0.2,1.6c0.4,1.3,1.8,2.3,3,2.3c3,0,6,0,9,0c0,0,0.1,0,0.1,0.1L46,79.8
		L46,79.8z M28.5,71.6c-0.5-1.1-1.6-2-2.8-2c-0.1,0-0.1,0.1-0.1,0.1l0,0c0,4.8,0,9.6,0,14.3c0,1,0.1,1.7,0.2,2.1
		c0.5,1.3,1.6,2,2.9,2.2c0,0,0.1,0,0.1-0.1c0,0,0,0,0,0c0-4.9,0-9.8,0-14.7C28.8,72.6,28.7,72,28.5,71.6L28.5,71.6z M79.1,81.3
		l-0.2,0c-0.1,0-0.2-0.1-0.2-0.2c0-2.8,0-5.6,0-8.4c0-1.8-1.4-3-3.1-3.2c0,0-0.1,0-0.1,0.1l0,0v14.6c0,0.1,0.1,0.2,0.2,0.2
		c1.1,0,2.2,0,3.3,0c1.9,0,3.4-1.4,3.4-3.3c0-1.9,0-3.8,0-5.7c0-0.1,0-0.1-0.1-0.1c-1.8,0.1-3.2,1.6-3.2,3.4c0,0.8,0,1.5,0,2.2
		C79.3,81.2,79.2,81.2,79.1,81.3L79.1,81.3z M13.8,71.3c0-0.1,0.1-0.1,0.2-0.1c0.1,0,0.1,0,0.1,0.1c0.4,1.1,2,0.8,2.1-0.3
		c0.1-1.1-1.2-1.8-2-0.9c-0.1,0.1-0.1,0.2-0.2,0.3c0,0-0.1,0.1-0.1,0c0,0,0,0,0,0l-0.1-0.2c0,0,0-0.1-0.1-0.1c-1-1-2.6,0.2-1.7,1.4
		C12.4,72.1,13.7,72,13.8,71.3L13.8,71.3z M71.2,76.2h-2.6c-0.1,0-0.1,0-0.1,0.1v3c0,0,0,0.1,0.1,0.1h5.9c0.1,0,0.2-0.1,0.2-0.2
		c0-1.2,0-2.3,0-3.6c0-1.9-1.5-3.2-3.4-3.2c-1.5,0-3,0-4.4,0c-0.2,0-0.2,0.1-0.2,0.2c0.3,1.5,1.1,2.4,2.4,2.9
		c0.7,0.2,1.5,0.1,2.3,0.1c0.1,0,0.2,0.1,0.2,0.2v0.1C71.5,76,71.4,76.1,71.2,76.2L71.2,76.2z M82.1,73.8c0-0.6-0.5-1.1-1.1-1.1l0,0
		c-0.6,0-1.1,0.5-1.1,1.1s0.5,1.1,1.1,1.1S82.1,74.4,82.1,73.8z M17.6,84.5c0,0.1,0,0.4,0,0.7c0,3.9,5.5,4.7,6.8,1.3
		c0.1-0.4,0.2-0.9,0.2-1.6c0-1.1,0-2.2,0-3.3s-0.1-1.8-0.2-2.2c-1-3.3-6.4-3-6.8,0.6c0,0.4,0,0.7,0,1c0,0.1-0.1,0.2-0.2,0.2h-0.1
		c-0.1,0-0.2-0.1-0.2-0.2l0-8.1c0,0,0-0.1-0.1-0.1l0,0c-1.1,0-2.1,0-3.2,0c-1.2,0-2,0.1-2.8,0.9c-0.7,0.7-1,1.6-1,2.6
		c0,2.4,0,4.8,0,7.2c0,0.1,0.1,0.1,0.1,0.1c0,0,0,0,0,0c0.8-0.1,1.5-0.4,2.1-0.9c0.9-0.9,1-1.7,1-3c0-1.2,0-2.3,0-3.5
		c0-0.1,0.1-0.2,0.2-0.2l0.2,0c0.2,0,0.2,0.1,0.2,0.2l-0.1,8.1c0,0.1,0.1,0.2,0.2,0.2l0,0l3.6,0C17.6,84.4,17.6,84.5,17.6,84.5
		L17.6,84.5L17.6,84.5z M71,83.2v1.6c0,0,0,0.1-0.1,0.1H37.5c-0.1,0-0.2-0.1-0.2-0.2l0,0l0-0.7c0-0.1,0-0.1-0.1-0.1c0,0,0,0,0,0
		c-2.3,0.3-4.2,1.4-3.7,4.1c0,0,0,0.1,0.1,0.1h40.5c0.1,0,0.1-0.1,0.1-0.1c0-1.4,0-2.7,0-4.1c0-0.9-0.1-1.6-0.3-2
		c-0.5-1.1-1.6-1.9-2.9-1.9c-3-0.1-6,0-8.9,0c-0.2,0-0.2-0.1-0.2-0.2v-0.1c0-0.2,0.1-0.2,0.2-0.2h5.2c0.1,0,0.2-0.1,0.2-0.2v-2.9
		c0-0.1-0.1-0.1-0.1-0.1l0,0c-1.7,0-3.5,0-5.2,0c-2,0-3.4,1.3-3.5,3.2c-0.1,1.9,1.1,3.7,3.1,3.7C64.8,83.2,67.9,83.1,71,83.2
		C71,83.1,71,83.2,71,83.2L71,83.2L71,83.2z M53.8,90.5c0.5,1.2,2.2,0.9,2.2-0.4c0-1.2-1.7-1.5-2.2-0.3c0,0.1-0.1,0.1-0.1,0.1
		c0,0,0,0-0.1-0.1c-0.5-1.4-2.6-0.5-2,0.8c0.3,0.8,1.2,0.9,1.8,0.3c0.1-0.1,0.2-0.3,0.3-0.4C53.7,90.4,53.7,90.4,53.8,90.5
		L53.8,90.5z M45.4,101.5c-0.1,0-0.2-0.1-0.2-0.2l0-1.7c0-0.1-0.1-0.1-0.1-0.1l-1.3,0c-0.1,0-0.1,0-0.1,0.1c0,0.6-0.1,1.7,0.1,2.3
		c0.3,0.9,1.8,1,2.6,0.8c0.8-0.2,1.2-0.6,1.3-1.4c0.1-1,0.1-1.7-0.5-2.3c-0.4-0.4-0.8-0.9-1.3-1.3c-0.3-0.3-0.8-1.6-0.3-1.8
		c0.1-0.1,0.3,0,0.3,0.1c0,0,0,0.1,0,0.1v1.2c0,0.1,0.1,0.2,0.2,0.2h1.2c0.1,0,0.2-0.1,0.2-0.2c0-0.5,0.1-1.4-0.2-1.8
		c-0.4-0.9-1.9-0.9-2.7-0.6c-1,0.3-1,1.2-1,2.1c0,1.1,1,1.8,1.7,2.5c0.5,0.5,0.5,1.2,0.5,1.9C45.8,101.5,45.7,101.5,45.4,101.5
		L45.4,101.5L45.4,101.5z M52.2,101.5c-0.2,0-0.2,0-0.2-0.2v-5.4c0-0.1,0.1-0.2,0.2-0.2c0,0,0,0,0,0h0.1c0.1,0,0.2,0.1,0.2,0.2v1.5
		c0,0.1,0,0.1,0.1,0.1h1.4c0.1,0,0.1,0,0.1-0.1c0-0.6,0-1.2-0.1-1.8c-0.2-1.4-3.7-1.4-3.7,0.5c0,1.1,0,2.8,0,5.2
		c0,2,3.8,1.8,3.8,0.1c0-0.6,0-1.2,0-1.8c0-0.1,0-0.1-0.1-0.1l0,0h-1.4c-0.1,0-0.1,0.1-0.1,0.1v1.9
		C52.4,101.5,52.3,101.5,52.2,101.5L52.2,101.5L52.2,101.5z M38.6,100c0-0.1,0.1-0.1,0.1,0l0.5,2.4c0,0.1,0.1,0.2,0.2,0.2l1.6,0
		c0.1,0,0.1-0.1,0.1-0.1c0,0,0,0,0,0L40,98.7c-0.1-0.2-0.1-0.5,0-0.8l0.9-3.1c0-0.1,0-0.1-0.1-0.1c0,0,0,0,0,0h-1.3
		c-0.1,0-0.2,0.1-0.2,0.1c-0.2,0.8-0.4,1.4-0.5,1.9c-0.1,0.4-0.2,0.4-0.2,0l0-1.9c0-0.1,0-0.1-0.1-0.1H37c-0.1,0-0.1,0-0.1,0.1v7.7
		c0,0.1,0,0.1,0.1,0.1l1.6,0c0,0,0.1,0,0.1-0.1l0,0c0-0.8,0-1.6,0-2.4C38.6,100,38.6,100,38.6,100L38.6,100z"/>
	<path class="st3" d="M40.8,13.6h11c0.1,0,0.1,0.1,0.1,0.1v0c0,0.1-0.1,0.1-0.1,0.1h-11c-0.1,0-0.1-0.1-0.1-0.1v0
		C40.7,13.7,40.7,13.6,40.8,13.6z"/>
	<path class="st3" d="M43.6,19.5c0.1,0,0.2-0.1,0.1-0.3c0,0,0,0,0,0c-1.2-2.1-0.1-3.7,1.8-4.7c0.3-0.2,0.6-0.2,1-0.1
		c1,0.4,1.7,0.9,2.2,1.7c0.7,1.1,0.4,2,0,3c0,0.1,0,0.3,0.1,0.4c0.2,0.2,0.3,0.5,0.3,0.8c0,1.7,0,3.5,0,5.3c0,0.1,0,0.1-0.1,0.1
		h-5.7c0,0-0.1,0-0.1-0.1v-6c0-0.1,0-0.1,0.1-0.1C43.3,19.6,43.6,19.5,43.6,19.5z M44.6,19.3c-0.3,0.3-0.3,0.5-0.7,0.8
		c0,0-0.1,0.1-0.1,0.1V25c0,0.1,0,0.1,0.1,0.1h4.3c0.1,0,0.1-0.1,0.1-0.1l0,0c0-1.5,0-2.9,0-4.3c0-0.6-0.3-1-0.7-1.3
		c0,0,0-0.1,0-0.1c0.1-0.1,0.3-0.3,0.3-0.4c1.1-1.7-0.3-3.2-1.9-3.8c-0.1,0-0.2,0-0.2,0c-1,0.4-1.9,1.2-2.1,2.2
		c-0.2,0.9,0.2,1.4,0.7,2C44.7,19.3,44.7,19.3,44.6,19.3L44.6,19.3z"/>
	
		<ellipse transform="matrix(2.443220e-02 -0.9997 0.9997 2.443220e-02 25.0062 55.2527)" class="st3" cx="40.8" cy="14.8" rx="0.1" ry="0.5"/>
	<path class="st1" d="M44.6,19.2c-0.5-0.7-0.9-1.1-0.7-2c0.2-1,1.1-1.8,2.1-2.2c0.1,0,0.2,0,0.2,0c1.5,0.6,3,2,1.9,3.8
		c-0.1,0.1-0.2,0.3-0.3,0.4c0,0,0,0.1,0,0.1c0.4,0.4,0.6,0.8,0.7,1.3c0,1.4,0.1,2.9,0,4.3c0,0.1-0.1,0.1-0.1,0.1H44
		c-0.1,0-0.1-0.1-0.1-0.1v-4.7c0,0,0-0.1,0.1-0.1c0.3-0.3,0.4-0.5,0.7-0.8C44.7,19.3,44.7,19.3,44.6,19.2L44.6,19.2z M47.2,19.2
		c0.1-0.1,0.2-0.3,0.4-0.4c1.3-1.5,0.1-2.8-1.3-3.4c-0.1,0-0.2,0-0.3,0c-1.4,0.7-2.4,2-1.1,3.5c0.1,0.1,0.2,0.2,0.4,0.3
		c0.1,0,0.1,0.1,0.1,0.2c0,0,0,0,0,0c-0.3,0.2-0.6,0.5-0.8,0.9c-0.1,0.2-0.2,0.4-0.2,0.7c0,1.2,0,2.4,0,3.6c0,0.1,0,0.1,0.1,0.1l0,0
		H48c0.1,0,0.1,0,0.1-0.1c0-1.2,0-2.5,0-3.7c0-0.7-0.4-1.1-0.9-1.5C47.1,19.4,47.1,19.3,47.2,19.2L47.2,19.2L47.2,19.2z"/>
	<path class="st3" d="M47.2,19.4c0.5,0.4,0.9,0.8,0.9,1.5c0,1.3,0,2.5,0,3.7c0,0.1,0,0.1-0.1,0.1h-3.6c-0.1,0-0.1-0.1-0.1-0.1l0,0
		c0-1.2,0-2.4,0-3.6c0-0.3,0.1-0.5,0.2-0.7c0.2-0.3,0.5-0.6,0.8-0.9c0.1,0,0.1-0.1,0-0.2c0,0,0,0,0,0c-0.1-0.1-0.2-0.2-0.4-0.3
		c-1.3-1.5-0.3-2.8,1.1-3.5c0.1,0,0.2,0,0.3,0c1.4,0.6,2.6,2,1.3,3.4c-0.1,0.1-0.2,0.3-0.4,0.4C47.2,19.2,47.2,19.3,47.2,19.4
		L47.2,19.4L47.2,19.4z"/>
	<ellipse transform="matrix(3.490598e-03 -1 1 3.490598e-03 23.9614 57.5023)" class="st3" cx="40.8" cy="16.7" rx="0.1" ry="0.5"/>
	
		<ellipse transform="matrix(0.9998 -2.094242e-02 2.094242e-02 0.9998 -0.3816 0.8594)" class="st3" cx="40.8" cy="18.7" rx="0.5" ry="0.1"/>
	
		<ellipse transform="matrix(2.268739e-02 -0.9997 0.9997 2.268739e-02 19.3326 60.931)" class="st3" cx="40.8" cy="20.6" rx="0.1" ry="0.5"/>
	<path class="st3" d="M41.2,22.4C41.2,22.4,41.2,22.4,41.2,22.4l0,0.1c0,0,0,0,0,0h-0.8c0,0,0,0,0,0v0c0,0,0,0,0,0L41.2,22.4
		L41.2,22.4z"/>
	
		<ellipse transform="matrix(2.443220e-02 -0.9997 0.9997 2.443220e-02 27.9245 73.6665)" class="st3" cx="51.7" cy="22.5" rx="0.1" ry="0.5"/>
	
		<ellipse transform="matrix(0.9999 -1.221700e-02 1.221700e-02 0.9999 -0.2954 0.5006)" class="st3" cx="40.8" cy="24.4" rx="0.5" ry="0.1"/>
	<path class="st3" d="M40.8,26.8h11c0.1,0,0.1,0,0.1,0.1v0c0,0.1,0,0.1-0.1,0.1h-11c-0.1,0-0.1,0-0.1-0.1v0
		C40.7,26.8,40.7,26.8,40.8,26.8z"/>
	<path class="st3" d="M39.3,28.1L39.3,28.1C39.3,28,39.3,28,39.3,28.1l1.1-0.1c0,0,0.1,0,0.1,0.1l0,0c0,0,0,0.1-0.1,0.1L39.3,28.1
		C39.3,28.1,39.3,28.1,39.3,28.1z"/>
	
		<ellipse transform="matrix(1.745241e-02 -0.9998 0.9998 1.745241e-02 23.7222 80.2552)" class="st3" cx="52.7" cy="28.1" rx="0.1" ry="0.6"/>
	<path class="st3" d="M51.8,34.4c0,3-2.5,5.5-5.5,5.5l0,0c-3,0-5.5-2.5-5.5-5.5s2.5-5.5,5.5-5.5S51.8,31.4,51.8,34.4L51.8,34.4z
		 M51.1,34.5c0-2.6-2.1-4.8-4.8-4.8l0,0c-2.6,0-4.8,2.1-4.8,4.8l0,0c0,2.6,2.1,4.8,4.8,4.8S51.1,37.1,51.1,34.5L51.1,34.5z"/>
	<path class="st1" d="M51.1,34.5c0,2.6-2.1,4.8-4.8,4.8l0,0c-2.6,0-4.8-2.1-4.8-4.8s2.1-4.8,4.8-4.8l0,0
		C49,29.7,51.1,31.8,51.1,34.5L51.1,34.5z M45.2,32c0.5,0.6,0.7,1.2,0.7,2c0,0.1,0,0.1,0.1,0.2c0.6,0.6,1.4,0.7,2.2,0.5
		c0,0,0.1-0.1,0.1-0.1c0.3-1.3-0.1-2.9-0.8-4c0-0.1-0.1-0.1-0.2-0.2c-0.8-0.2-1.6-0.1-2.4,0.2c-0.1,0-0.1,0.1,0,0.1
		c0.3,0.3,0.4,0.7,0.3,1.2C45.1,31.9,45.1,31.9,45.2,32L45.2,32z M47.8,30.7c0.7,1.1,0.9,2.5,0.7,3.8c0,0.1,0,0.1,0.1,0.2
		c0.6,0.3,1.2,0.4,1.7,0c0.1-0.1,0.2-0.2,0.2-0.3c0-1.8-1-3-2.5-3.9C47.7,30.5,47.7,30.5,47.8,30.7L47.8,30.7z M44,30.9
		c-1.2,1-1.8,1.9-2,3.4c0,0.2,0,0.2,0.1,0c0.2-0.3,0.3-0.7,0.6-0.9c0.5-0.6,1.2-1.1,1.8-1.4c0.3-0.1,0.4-0.5,0.2-0.8c0,0,0,0,0,0
		l-0.1-0.1C44.6,30.7,44.4,30.7,44,30.9L44,30.9z M43.4,37.3c0.1-0.5,0-0.8,0.5-1.1c0,0,0.1-0.1,0.1-0.1c0.2-0.8,0.6-1.5,1.4-1.9
		c0.1,0,0.1-0.2,0.1-0.3c0-0.6-0.1-1.2-0.5-1.6c0,0-0.1-0.1-0.2,0c-1,0.5-1.7,1.2-2.3,2.1c-0.7,1.1,0,2.2,0.7,3.1
		C43.3,37.4,43.4,37.4,43.4,37.3C43.4,37.4,43.4,37.4,43.4,37.3L43.4,37.3z M48.6,37.3c0.2,0,0.8-0.1,1-0.3c0.4-0.6,0.7-1.2,0.9-1.9
		c0,0,0-0.1-0.1-0.1c0,0,0,0-0.1,0c-0.5,0.3-1.1,0.3-1.6,0c-0.1-0.1-0.3-0.1-0.4-0.2c0,0-0.1,0-0.2,0c-0.9,0.3-1.7,0.1-2.4-0.5
		c0,0-0.1,0-0.2,0c-0.5,0.3-1.2,1-1.2,1.7c0,0.1,0,0.1,0.1,0.1C45.7,37.2,47.1,37.6,48.6,37.3L48.6,37.3z M43.8,37.8
		c1.4,1.3,3.8,0.9,5.2-0.1c0,0,0,0,0-0.1c0,0,0,0-0.1,0c-1.7,0.3-3.2,0-4.5-1.1c-0.2-0.2-0.4-0.2-0.5,0.1l-0.2,0.5
		C43.6,37.4,43.6,37.6,43.8,37.8L43.8,37.8z"/>
	<path class="st3" d="M39.4,30l1.1,0c0,0,0.1,0,0.1,0.1l0,0c0,0,0,0.1-0.1,0.1l-1.1,0C39.3,30.1,39.3,30.1,39.4,30L39.4,30
		C39.3,30,39.3,30,39.4,30z"/>
	
		<ellipse transform="matrix(1 -1.745326e-03 1.745326e-03 1 -5.232822e-02 9.204607e-02)" class="st3" cx="52.7" cy="30" rx="0.6" ry="0.1"/>
	<path class="st3" d="M45.8,34c0-0.8-0.1-1.4-0.7-2c0,0,0-0.1,0-0.1c0.1-0.5,0-0.8-0.3-1.2c0,0,0-0.1,0-0.1c0.8-0.3,1.6-0.3,2.4-0.2
		c0.1,0,0.2,0.1,0.2,0.2c0.7,1.1,1.1,2.7,0.8,4c0,0-0.1,0.1-0.1,0.1c-0.8,0.3-1.6,0.1-2.2-0.5C45.8,34.1,45.8,34.1,45.8,34L45.8,34z
		"/>
	<path class="st3" d="M48.5,34.5c0.2-1.2,0-2.7-0.7-3.8c-0.1-0.2-0.1-0.2,0.1-0.1c1.5,0.8,2.5,2.1,2.5,3.9c0,0.1-0.1,0.2-0.2,0.3
		c-0.6,0.3-1.2,0.3-1.7,0C48.5,34.6,48.4,34.6,48.5,34.5L48.5,34.5z"/>
	<path class="st3" d="M42.1,34.3c0.1-1.5,0.7-2.4,2-3.4c0.3-0.2,0.5-0.2,0.7,0.1l0.1,0.1c0.2,0.3,0,0.6-0.2,0.8c0,0,0,0,0,0
		c-0.7,0.3-1.3,0.8-1.8,1.4c-0.2,0.3-0.4,0.6-0.6,0.9C42.1,34.5,42,34.5,42.1,34.3L42.1,34.3z"/>
	
		<ellipse transform="matrix(0.9999 -1.047178e-02 1.047178e-02 0.9999 -0.3326 0.4203)" class="st3" cx="40" cy="32" rx="0.6" ry="0.1"/>
	<path class="st3" d="M53.3,31.9C53.3,31.9,53.3,31.9,53.3,31.9C53.4,32,53.4,32,53.3,31.9C53,32,52.6,32,52.3,32
		c-0.1,0-0.1,0,0-0.1C52.5,31.8,52.8,31.8,53.3,31.9C53.2,31.9,53.2,31.9,53.3,31.9z"/>
	<path class="st3" d="M44,36.2c-0.5,0.3-0.4,0.6-0.5,1.1c0,0-0.1,0.1-0.1,0.1c0,0,0,0,0,0c-0.7-0.9-1.4-2-0.7-3.1
		c0.5-0.9,1.3-1.6,2.3-2.1c0.1,0,0.1,0,0.2,0c0.4,0.5,0.6,1,0.5,1.6c0,0.2,0,0.3-0.1,0.3c-0.7,0.5-1.2,1.1-1.4,1.9
		C44,36.1,44,36.2,44,36.2L44,36.2z"/>
	<path class="st3" d="M39.4,33.9l1,0c0,0,0.1,0,0.1,0.1l0,0c0,0,0,0.1-0.1,0.1l-1,0C39.3,34,39.3,34,39.4,33.9L39.4,33.9
		C39.3,33.9,39.3,33.9,39.4,33.9z"/>
	<path class="st3" d="M48.6,37.3c-1.6,0.3-3-0.1-4.2-1.1c0,0-0.1-0.1-0.1-0.1c0-0.6,0.7-1.3,1.2-1.7c0,0,0.1,0,0.2,0
		c0.7,0.6,1.5,0.8,2.4,0.5c0,0,0.1,0,0.2,0c0.2,0,0.3,0.1,0.4,0.2c0.6,0.3,1.1,0.2,1.6,0c0,0,0.1,0,0.1,0c0,0,0,0,0,0.1
		c-0.2,0.7-0.5,1.3-0.9,1.9C49.4,37.3,48.8,37.3,48.6,37.3L48.6,37.3z"/>
	<path class="st3" d="M39.4,35.9L39.4,35.9C39.4,35.8,39.4,35.8,39.4,35.9l1-0.1c0,0,0,0,0,0.1l0,0c0,0,0,0-0.1,0L39.4,35.9
		C39.4,35.9,39.4,35.9,39.4,35.9z"/>
	
		<ellipse transform="matrix(2.792161e-02 -0.9996 0.9996 2.792161e-02 15.3772 87.5979)" class="st3" cx="52.7" cy="35.9" rx="0.1" ry="0.6"/>
	<path class="st3" d="M49,37.7c-1.4,1.1-3.8,1.5-5.2,0.1c-0.2-0.2-0.2-0.5-0.2-0.7l0.2-0.5c0.1-0.3,0.3-0.3,0.5-0.1
		c1.3,1.1,2.8,1.4,4.5,1.1C48.9,37.5,49,37.5,49,37.7C49,37.6,49,37.6,49,37.7L49,37.7z"/>
	<path class="st3" d="M39.4,37.8h1c0,0,0.1,0,0.1,0.1v0c0,0,0,0.1-0.1,0.1h-1C39.4,37.9,39.4,37.9,39.4,37.8L39.4,37.8
		C39.4,37.8,39.4,37.8,39.4,37.8z"/>
	<ellipse transform="matrix(6.981287e-03 -1 1 6.981287e-03 14.5046 90.297)" class="st3" cx="52.7" cy="37.8" rx="0.1" ry="0.6"/>
	<path class="st3" d="M40.4,39.7C40.4,39.7,40.5,39.7,40.4,39.7L40.4,39.7c0,0.1,0,0.1,0,0.1h-1c0,0,0,0,0,0v0c0,0,0,0,0,0H40.4z"/>
	<path class="st3" d="M52.2,39.7l0.9,0.1l0,0c0,0,0,0,0,0v0h-0.9C52.2,39.8,52.2,39.8,52.2,39.7L52.2,39.7
		C52.2,39.7,52.2,39.7,52.2,39.7L52.2,39.7z"/>
	<path class="st3" d="M40.8,42.4l11,0c0.1,0,0.1,0.1,0.1,0.1l0,0c0,0.1-0.1,0.1-0.1,0.1l-11,0c-0.1,0-0.1-0.1-0.1-0.1l0,0
		C40.7,42.5,40.8,42.4,40.8,42.4z"/>
	
		<ellipse transform="matrix(2.966619e-02 -0.9996 0.9996 2.966619e-02 -5.5105 81.5042)" class="st3" cx="39.2" cy="43.6" rx="0.1" ry="0.7"/>
	<path class="st3" d="M42.8,56.6c-0.1,0-0.2-0.1-0.2-0.2v-8.5c0-2,1.6-3.7,3.6-3.7h0c2,0,3.6,1.6,3.6,3.7l0,0v8.5
		c0,0.1-0.1,0.2-0.2,0.2H42.8L42.8,56.6z M43.4,55.8H49c0.1,0,0.2-0.1,0.2-0.2v-7.4c0-1.9-1.3-3.4-2.8-3.4l0,0H46
		c-1.5,0-2.8,1.5-2.8,3.4v7.4C43.2,55.8,43.3,55.8,43.4,55.8C43.4,55.8,43.4,55.8,43.4,55.8z"/>
	<path class="st1" d="M43.4,55.8c-0.1,0-0.2-0.1-0.2-0.2l0,0v-7.4c0-1.9,1.2-3.4,2.8-3.4h0.4c1.5,0,2.8,1.5,2.8,3.4l0,0l0,7.4
		c0,0.1-0.1,0.2-0.2,0.2L43.4,55.8L43.4,55.8z M43.7,55.4h5c0,0,0,0,0,0v-7.2c0-1.6-1.1-2.8-2.4-2.8h-0.2c-1.3,0-2.4,1.3-2.4,2.8
		l0,0L43.7,55.4C43.6,55.4,43.7,55.4,43.7,55.4z"/>
	<path class="st3" d="M43.7,55.4C43.7,55.4,43.7,55.4,43.7,55.4l0-7.2c0-1.6,1.1-2.8,2.4-2.8h0.2c1.3,0,2.4,1.3,2.4,2.8l0,0v7.2
		c0,0,0,0,0,0H43.7z"/>
	<path class="st3" d="M38.7,45.5L38.7,45.5C38.7,45.5,38.7,45.4,38.7,45.5l1.1-0.1c0,0,0.1,0,0.1,0.1l0,0c0,0,0,0.1-0.1,0.1
		L38.7,45.5C38.7,45.6,38.7,45.6,38.7,45.5z"/>
	<path class="st3" d="M38.7,47.4l1.1,0c0,0,0.1,0,0.1,0.1l0,0c0,0,0,0.1-0.1,0.1l-1.1,0C38.7,47.6,38.7,47.5,38.7,47.4L38.7,47.4
		C38.7,47.5,38.7,47.4,38.7,47.4z"/>
	<ellipse transform="matrix(1 -5.235964e-03 5.235964e-03 1 -0.2582 0.2062)" class="st3" cx="39.2" cy="49.4" rx="0.7" ry="0.1"/>
	<path class="st3" d="M38.7,51.4L38.7,51.4C38.7,51.4,38.7,51.3,38.7,51.4l1.1-0.1c0,0,0.1,0,0.1,0.1l0,0c0,0,0,0.1-0.1,0.1
		L38.7,51.4C38.7,51.5,38.7,51.4,38.7,51.4z"/>
	<path class="st3" d="M38.7,53.3l1.1,0c0,0,0.1,0,0.1,0.1l0,0c0,0,0,0.1-0.1,0.1l-1.1,0C38.7,53.4,38.7,53.4,38.7,53.3L38.7,53.3
		C38.7,53.3,38.7,53.3,38.7,53.3z"/>
	<path class="st3" d="M38.7,55.2l1.1,0c0,0,0.1,0,0.1,0.1l0,0c0,0,0,0.1-0.1,0.1l-1.1,0C38.7,55.4,38.7,55.3,38.7,55.2L38.7,55.2
		C38.7,55.3,38.7,55.2,38.7,55.2z"/>
	<path class="st3" d="M40.8,57.8l11,0c0.1,0,0.1,0.1,0.1,0.1v0c0,0.1-0.1,0.1-0.1,0.1l-11,0c-0.1,0-0.1-0.1-0.1-0.1v0
		C40.7,57.8,40.7,57.8,40.8,57.8z"/>
	<ellipse transform="matrix(1.745302e-03 -1 1 1.745302e-03 -21.213 96.836)" class="st3" cx="37.9" cy="59" rx="0.1" ry="0.6"/>
	<path class="st3" d="M47.9,63.8l0.7,0c0.1,0,0.2,0,0.2,0.2l0,0.2c0,0.1,0,0.2-0.2,0.2h-1.8c0,0-0.1,0-0.1-0.1c0,0,0,0,0-0.1
		c0.5-0.5,1.4-1.7,1.3-2.4c0-0.1-0.1-0.2-0.2-0.3c-0.3-0.1-0.4,0.3-0.4,0.5c0,0,0,0.1-0.1,0.1c-0.1,0-0.3,0-0.4,0
		c-0.1,0-0.1-0.1-0.1-0.1c0-1.4,1.8-1.4,1.9-0.2c0,0.7-0.4,1.3-0.9,1.8C47.8,63.7,47.8,63.8,47.9,63.8
		C47.8,63.8,47.8,63.8,47.9,63.8L47.9,63.8z"/>
	<path class="st3" d="M50.9,62.7c0.2,0.2,0.3,0.4,0.3,0.7c0,1.3-1.8,1.4-2,0.1c0-0.1,0-0.1,0.1-0.1c0.6-0.2,0.5,0.3,0.9,0.4
		c0.5,0.1,0.7-0.8,0-0.9c-0.1,0-0.1,0-0.1-0.1c-0.2-0.5,1-0.4,0.5-1.2c-0.1-0.1-0.3-0.2-0.4-0.1c0,0,0,0-0.1,0.1
		c-0.2,0.2-0.4,0.3-0.6,0.2c-0.1,0-0.1,0-0.1-0.1c0-1,1.6-1.2,1.9-0.2c0.1,0.3,0,0.6-0.3,0.9C50.8,62.6,50.8,62.6,50.9,62.7
		L50.9,62.7z"/>
	<path class="st3" d="M43,63.8l0.6,0c0.2,0,0.3,0.1,0.3,0.2V64c0,0.2-0.1,0.3-0.3,0.3h-1.8c0,0-0.1,0-0.1-0.1c0,0,0,0,0-0.1
		c0.5-0.6,1.2-1.5,1.4-2.2c0-0.2,0-0.3-0.2-0.4c-0.2-0.1-0.3,0-0.4,0.2c0,0.1-0.1,0.2-0.1,0.3c0,0.1-0.1,0.1-0.1,0.1
		c-0.1,0-0.3,0-0.4,0c-0.1,0-0.1-0.1-0.1-0.1c0-1.5,2.2-1.4,1.9,0.2c-0.1,0.5-0.4,1-0.8,1.4c-0.1,0-0.1,0.1,0,0.2
		C43,63.8,43,63.8,43,63.8L43,63.8z"/>
	<path class="st3" d="M45.3,64.4c-0.6,0-1-0.8-1-1.7l0,0c0-1,0.5-1.8,1-1.8l0,0c0.6,0,1,0.8,1,1.7l0,0
		C46.3,63.6,45.9,64.4,45.3,64.4z M45.3,63.8c0.2,0,0.3-0.5,0.3-1.2l0,0c0-0.6-0.2-1.2-0.3-1.2l0,0c-0.2,0-0.3,0.5-0.3,1.2l0,0
		C45,63.3,45.1,63.8,45.3,63.8z"/>
	
		<ellipse transform="matrix(3.490598e-03 -1 1 3.490598e-03 -17.539 107.7577)" class="st1" cx="45.3" cy="62.7" rx="1.2" ry="0.3"/>
	<path class="st3" d="M46,79.8v-1.5c0,0,0-0.1-0.1-0.1c-3,0-6,0-9,0c-1.3,0-2.6-1-3-2.3c-0.1-0.3-0.2-0.8-0.2-1.6c0-1.5,0-3,0-4.4
		c0-0.1,0.1-0.2,0.2-0.2h15.1c0.1,0,0.2,0.1,0.2,0.2c0.4,2.6-1.4,3.7-3.7,4c-0.1,0-0.1,0-0.2-0.1c0,0,0,0,0,0l0-0.7
		c0-0.1,0-0.1-0.1-0.1l0,0H37c-0.1,0-0.1,0.1-0.1,0.1l0,0v1.8C36.9,75,37,75,37,75c2.7,0,5.5,0,8.2,0c1.3,0,2.2,0.1,3,1
		c1.1,1.1,1,2.3,0.9,3.7c0,0.1,0.1,0.2,0.2,0.2l0,0h1.5c0.1,0,0.1-0.1,0.1-0.1c0-2.2,0-4.4,0-6.6c0-0.8,0.1-1.4,0.2-1.8
		c0.5-1.3,1.8-2.2,3.2-2.1c1.2,0,2.3,0,3.5,0c0,0,0.1,0,0.1,0.1L58,83c0,0.1-0.1,0.1-0.1,0.1c0,0,0,0,0,0c-1.4-0.2-2.4-0.9-2.9-2.2
		c-0.1-0.4-0.2-0.9-0.2-1.5c0-2.1,0-4.4,0-6.7c0-0.2-0.1-0.3-0.3-0.3h-0.1c-0.1,0-0.2,0.1-0.2,0.2l0,0c0,2.5,0,5,0,7.4
		c0,0.7-0.3,1.4-0.9,2c-0.8,0.8-1.6,1-2.9,1c-5.8,0-11.5,0-17.2,0c-0.1,0-0.1,0.1-0.1,0.1l0,0c0,1.1,0.2,2.3-0.3,3.3
		c-0.5,1.1-1.5,1.7-2.8,1.9c-0.1,0-0.1,0-0.1-0.1c0,0,0,0,0,0c0-2.1,0-4.2,0.1-6.2c0-1.8,2.7-2.1,3.9-2.1
		C37.7,79.9,41.8,79.9,46,79.8C46,79.9,46,79.9,46,79.8L46,79.8L46,79.8z"/>
	<path class="st3" d="M25.7,69.7c1.3,0.1,2.4,0.9,2.8,2c0.2,0.4,0.2,1.1,0.2,1.9c0,4.9,0,9.8,0,14.7c0,0.1,0,0.1-0.1,0.1
		c0,0,0,0,0,0c-1.3-0.2-2.4-0.9-2.9-2.2c-0.1-0.4-0.2-1.1-0.2-2.1c0-4.7,0-9.5,0-14.3C25.6,69.7,25.6,69.7,25.7,69.7L25.7,69.7
		L25.7,69.7z"/>
	<path class="st3" d="M79.3,81.2c0-0.7,0-1.5,0-2.2c0-1.8,1.3-3.3,3.2-3.4c0.1,0,0.1,0,0.1,0.1c0,1.9,0,3.8,0,5.7
		c0,1.9-1.5,3.3-3.4,3.3c-1.1,0-2.2,0-3.3,0c-0.1,0-0.2-0.1-0.2-0.2V69.7c0,0,0-0.1,0.1-0.1l0,0c1.7,0.1,3.1,1.4,3.1,3.2
		c0,2.8,0,5.6,0,8.4c0,0.1,0.1,0.2,0.2,0.2l0.2,0C79.2,81.4,79.3,81.3,79.3,81.2L79.3,81.2z"/>
	<path class="st3" d="M13.9,71.3c-0.2,0.8-1.4,0.9-1.9,0.2c-0.8-1.2,0.8-2.5,1.7-1.4c0,0,0.1,0.1,0.1,0.1l0.1,0.2
		c0,0,0.1,0.1,0.1,0.1c0,0,0,0,0,0c0.1-0.1,0.1-0.2,0.2-0.3c0.8-0.9,2.1-0.3,2,0.9c-0.1,1.1-1.7,1.3-2.1,0.3
		C14.1,71.3,14,71.2,13.9,71.3C13.9,71.3,13.9,71.3,13.9,71.3L13.9,71.3z"/>
	<path class="st3" d="M71.2,76.2c0.2,0,0.3-0.1,0.3-0.3v-0.1c0-0.1-0.1-0.2-0.2-0.2c-0.7,0-1.6,0.1-2.3-0.1
		c-1.3-0.4-2.1-1.4-2.4-2.9c0-0.2,0-0.2,0.2-0.2c1.4,0,2.9,0,4.4,0c1.8,0,3.3,1.4,3.4,3.2c0,1.2,0,2.4,0,3.6c0,0.1-0.1,0.2-0.2,0.2
		h-5.9c0,0-0.1-0.1-0.1-0.1v-3c0-0.1,0.1-0.1,0.1-0.1L71.2,76.2L71.2,76.2z"/>
	<circle class="st3" cx="81.1" cy="73.9" r="1.1"/>
	<path class="st3" d="M17.6,84.5l-3.6,0c-0.1,0-0.2-0.1-0.2-0.2l0,0l0.1-8.1c0-0.2-0.1-0.2-0.2-0.2l-0.2,0c-0.1,0-0.2,0.1-0.2,0.2
		c0,1.2,0,2.3,0,3.5c0,1.3-0.1,2.1-1,3c-0.5,0.5-1.2,0.8-2.1,0.9c-0.1,0-0.1,0-0.1-0.1c0,0,0,0,0,0c0-2.4,0-4.8,0-7.2
		c0-1.1,0.3-1.9,1-2.6c0.8-0.8,1.6-0.9,2.8-0.9c1.1,0,2.1,0,3.2,0c0,0,0.1,0,0.1,0.1l0,0l0,8.1c0,0.2,0.1,0.2,0.2,0.2h0.1
		c0.1,0,0.2-0.1,0.2-0.2c0-0.3,0-0.6,0-1c0.4-3.6,5.8-4,6.8-0.6c0.1,0.4,0.2,1.2,0.2,2.2s0,2.2,0,3.3c0,0.7-0.1,1.2-0.2,1.6
		c-1.3,3.4-6.9,2.6-6.8-1.3c0-0.3,0-0.5,0-0.7C17.7,84.6,17.6,84.5,17.6,84.5L17.6,84.5L17.6,84.5z M21.5,80.6
		c0-0.1-0.1-0.2-0.2-0.2h-0.2c-0.1,0-0.2,0.1-0.2,0.2l0,0v4.8c0,0.1,0.1,0.2,0.2,0.2h0.2c0.1,0,0.2-0.1,0.2-0.2V80.6z"/>
	<path class="st3" d="M71.1,83.3C71.1,83.3,71,83.2,71.1,83.3L71.1,83.3c-3.1-0.1-6.2,0-9.2-0.1c-2,0-3.2-1.9-3.1-3.7
		c0.1-1.9,1.5-3.2,3.5-3.2c1.7,0,3.4,0,5.2,0c0.1,0,0.1,0.1,0.1,0.1l0,0v2.9c0,0.1-0.1,0.2-0.2,0.2h-5.2c-0.2,0-0.2,0.1-0.2,0.2v0.1
		c0,0.2,0.1,0.2,0.2,0.2c3,0,6,0,8.9,0c1.3,0,2.4,0.8,2.9,1.9c0.2,0.4,0.3,1.1,0.3,2c0,1.3,0,2.7,0,4.1c0,0.1-0.1,0.1-0.1,0.1H33.6
		c0,0-0.1,0-0.1-0.1c-0.5-2.7,1.4-3.8,3.7-4.1c0,0,0.1,0,0.1,0.1c0,0,0,0,0,0l0,0.7c0,0.1,0.1,0.2,0.2,0.2l0,0H71c0,0,0.1,0,0.1-0.1
		l0,0L71.1,83.3L71.1,83.3z"/>
	<path class="st1" d="M21.1,80.4l0.2,0c0.1,0,0.2,0.1,0.2,0.2l0,4.8c0,0.1-0.1,0.2-0.2,0.2l-0.2,0c-0.1,0-0.2-0.1-0.2-0.2l0-4.8
		C20.9,80.5,21,80.4,21.1,80.4z"/>
	<path class="st2" d="M92.2,86.5l-45.7,30.9c0,0-0.1,0-0.1,0L0.4,86.3c-0.2-0.1-0.2-0.2-0.2-0.4l0.2-4.2c0-0.1,0.1-0.1,0.1-0.1
		c14,9.5,28,18.9,41.9,28.4c0.1,0.1,0.2,0.2,0.2,0.3c0.5,2.9,3.5,4.4,5.9,2.7c0.9-0.6,1.4-1.5,1.5-2.7c0-0.1,0.1-0.2,0.2-0.3
		c13.9-9.4,27.8-18.8,41.7-28.2c0,0,0.1,0,0.1,0c0,0,0,0,0,0.1l0.2,4.2C92.4,86.3,92.3,86.5,92.2,86.5L92.2,86.5z"/>
	<path class="st3" d="M53.7,90.5c-0.1,0.1-0.2,0.3-0.3,0.4c-0.5,0.5-1.5,0.4-1.8-0.3c-0.6-1.4,1.5-2.2,2-0.8c0,0.1,0.1,0.1,0.1,0.1
		c0,0,0,0,0.1-0.1c0.5-1.1,2.1-0.8,2.2,0.3c0,1.2-1.6,1.6-2.2,0.4C53.7,90.5,53.7,90.5,53.7,90.5z"/>
	<path class="st3" d="M45.9,101.4c0.1-0.7,0.1-1.4-0.5-1.9c-0.8-0.8-1.7-1.5-1.7-2.5c0-0.9,0-1.8,1-2.1c0.8-0.3,2.3-0.3,2.7,0.6
		c0.2,0.4,0.1,1.3,0.2,1.8c0,0.1,0,0.2-0.2,0.2h-1.2c-0.1,0-0.2-0.1-0.2-0.2V96c0-0.1-0.1-0.2-0.2-0.2c0,0-0.1,0-0.1,0
		c-0.5,0.3,0,1.5,0.3,1.8c0.4,0.4,0.9,0.9,1.3,1.3c0.6,0.6,0.6,1.3,0.5,2.3c-0.1,0.8-0.5,1.2-1.3,1.4c-0.8,0.2-2.2,0.1-2.6-0.8
		c-0.2-0.5-0.1-1.6-0.1-2.3c0-0.1,0-0.1,0.1-0.1l1.3,0c0.1,0,0.1,0.1,0.1,0.1l0,1.7c0,0.1,0.1,0.2,0.2,0.2l0.1,0
		C45.8,101.6,45.8,101.5,45.9,101.4L45.9,101.4z"/>
	<path class="st3" d="M52.2,101.6L52.2,101.6c0.2,0,0.2-0.1,0.2-0.2v-1.9c0-0.1,0-0.1,0.1-0.1h1.4c0,0,0.1,0.1,0.1,0.1l0,0
		c0,0.6,0,1.2,0,1.8c0,1.7-3.7,1.9-3.8-0.1c0-2.3-0.1-4.1,0-5.2c0-1.8,3.6-1.9,3.7-0.5c0.1,0.6,0.1,1.2,0.1,1.8c0,0.1,0,0.1-0.1,0.1
		h-1.4c0,0-0.1,0-0.1-0.1V96c0-0.1,0-0.2-0.1-0.2h-0.1c-0.1,0-0.2,0-0.2,0.2c0,0,0,0,0,0v5.4C52,101.6,52,101.6,52.2,101.6
		L52.2,101.6z"/>
	<path class="st3" d="M38.6,100.1c0,0,0,0.1,0,0.1c0,0.8,0,1.6,0,2.4c0,0,0,0.1-0.1,0.1l0,0l-1.6,0c-0.1,0-0.1,0-0.1-0.1v-7.7
		c0-0.1,0-0.1,0.1-0.1h1.6c0.1,0,0.1,0,0.1,0.1l0,1.9c0,0.4,0.1,0.4,0.2,0c0.2-0.4,0.3-1.1,0.5-1.9c0-0.1,0.1-0.1,0.2-0.1h1.3
		c0.1,0,0.1,0.1,0.1,0.1c0,0,0,0,0,0L40,98c-0.1,0.2-0.1,0.5,0,0.8l1.1,3.8c0,0.1,0,0.1-0.1,0.1c0,0,0,0,0,0l-1.6,0
		c-0.1,0-0.2-0.1-0.2-0.2l-0.5-2.4C38.7,100,38.7,99.9,38.6,100.1L38.6,100.1z"/>
	<path class="st1" d="M49.3,110c0,1.7-1.3,3-3,3l0,0c-1.7,0-3-1.3-3-3l0,0c0-1.7,1.3-3,3-3l0,0C48,107,49.3,108.3,49.3,110L49.3,110
		z M45.1,109.3c-2.1,0.8-0.3,3.5,1.2,2.1c0,0,0.1-0.1,0.2,0c0.2,0.1,0.4,0.3,0.7,0.4c1.6,0.3,2.2-1.9,0.6-2.5c0,0-0.1-0.1-0.1-0.1
		c0.5-1.9-2.8-2.2-2.4,0C45.1,109.2,45.1,109.3,45.1,109.3L45.1,109.3z"/>
	<path class="st3" d="M45.1,109.2c-0.4-2.2,3-1.9,2.4,0c0,0.1,0,0.1,0.1,0.1c1.6,0.5,1,2.8-0.6,2.5c-0.2-0.1-0.4-0.2-0.7-0.4
		c0,0-0.1,0-0.2,0c-1.4,1.4-3.3-1.3-1.2-2.1C45.1,109.3,45.1,109.3,45.1,109.2L45.1,109.2z M45.5,109.6c-1.2,0-1.5,1.5-0.5,1.9
		c0.5,0.2,1,0,1.2-0.5c0,0,0.1-0.1,0.1,0c0,0,0,0,0,0c0.1,0.1,0.2,0.3,0.4,0.4c0.4,0.3,0.8,0.3,1.2,0c0.8-0.6,0.3-1.8-0.7-1.7
		c-0.1,0-0.2,0-0.1-0.2c1-1.8-2.2-2.1-1.7-0.3C45.5,109.3,45.6,109.4,45.5,109.6C45.6,109.5,45.6,109.6,45.5,109.6L45.5,109.6z"/>
	<path class="st1" d="M45.6,109.5c0-0.1-0.1-0.2-0.1-0.3c-0.5-1.8,2.7-1.6,1.7,0.3c-0.1,0.1,0,0.2,0.1,0.2c0.9-0.1,1.4,1.1,0.7,1.7
		c-0.4,0.3-0.8,0.3-1.2,0c-0.1-0.1-0.2-0.3-0.4-0.4c0,0-0.1,0-0.1,0c0,0,0,0,0,0c-0.3,0.6-0.7,0.8-1.2,0.5
		C44,111.1,44.3,109.6,45.6,109.5C45.6,109.6,45.6,109.6,45.6,109.5L45.6,109.5z M46.6,110c0-0.1-0.1-0.2-0.2-0.2l0,0
		c-0.1,0-0.2,0.1-0.2,0.2l0,0c0,0.1,0.1,0.2,0.2,0.2S46.6,110.1,46.6,110z"/>
	<circle class="st3" cx="46.4" cy="110" r="0.2"/>
</g>
<g>
	<path class="st2" d="M237.5,56.4v-5.1c0-0.2-0.1-0.3-0.3-0.3c-10,0-20.1,0-30.2,0c-4.3,0-8.8-3.3-10.1-7.6
		c-0.3-1.1-0.5-2.8-0.5-5.3c0-4.9-0.1-9.9-0.1-14.9c0-0.3,0.2-0.5,0.5-0.5l0,0l50.4,0c0.5,0,0.7,0.2,0.8,0.7
		c1.4,8.8-4.7,12.2-12.4,13.5c-0.2,0-0.5-0.1-0.5-0.3c0,0,0-0.1,0-0.1l0.1-2.5c0-0.2-0.2-0.4-0.4-0.5c0,0,0,0,0,0l-27.3,0
		c-0.2,0-0.4,0.2-0.4,0.4l0,0v6c0,0.2,0.2,0.4,0.4,0.4c9.1,0,18.2,0,27.3,0c4.4,0,7.3,0.5,10.2,3.4c3.6,3.7,3.3,7.8,3.1,12.4
		c0,0.3,0.2,0.5,0.5,0.5c0,0,0,0,0,0h4.8c0.3,0,0.4-0.2,0.4-0.4c0.1-7.3,0.1-14.6,0.1-21.9c0-2.7,0.2-4.7,0.7-5.9
		c1.6-4.3,6-7.2,10.7-7.1c4,0,7.9,0.1,11.8,0.1c0.2,0,0.3,0.1,0.3,0.3l0.1,45.2c0,0.3-0.2,0.5-0.5,0.5c0,0,0,0-0.1,0
		c-4.8-0.7-8-3.1-9.5-7.2c-0.5-1.2-0.7-2.9-0.7-5c0.1-7.2,0.1-14.6,0-22.3c0-0.7-0.3-1-1-1h-0.2c-0.4,0-0.7,0.3-0.7,0.7l0,0
		c0,8.4-0.1,16.7-0.1,24.8c0,2.3-1.1,4.5-3.1,6.6c-2.8,2.8-5.4,3.3-9.6,3.3c-19.2,0-38.4,0-57.6,0.1c-0.2,0-0.4,0.2-0.4,0.4
		c0,0,0,0,0,0c0.2,3.5,0.5,7.6-1.1,10.9c-1.8,3.7-4.9,5.8-9.3,6.2c-0.2,0-0.4-0.1-0.4-0.4c0,0,0,0,0,0c0.1-7,0.1-14,0.2-20.8
		c0.1-5.9,8.9-6.9,13-6.9c13.5,0,27.1,0,40.9,0C237.4,56.7,237.5,56.6,237.5,56.4L237.5,56.4L237.5,56.4z"/>
	<path class="st2" d="M169.8,22.4c4.2,0.2,8,3,9.5,6.8c0.6,1.4,0.8,3.5,0.8,6.5c0,16.4,0,32.8,0,49.1c0,0.2-0.1,0.3-0.3,0.3
		c0,0,0,0,0,0c-4.5-0.6-8.2-3.1-9.7-7.3c-0.5-1.3-0.7-3.6-0.7-7c0-15.8,0-31.8,0-47.9C169.4,22.6,169.5,22.4,169.8,22.4L169.8,22.4
		L169.8,22.4z"/>
	<path class="st2" d="M348.8,60.9c0-2.4,0-4.9,0-7.5c0-6,4.5-11,10.5-11.4c0.2,0,0.3,0.1,0.3,0.3c0,6.3-0.1,12.7-0.1,19
		c0,6.4-5.1,11.1-11.5,11c-3.8-0.1-7.5-0.1-11.2-0.1c-0.4,0-0.7-0.3-0.7-0.7l0-48.9c0-0.1,0.1-0.2,0.2-0.2c0,0,0,0,0,0
		c5.6,0.5,10.4,4.6,10.4,10.5c0,9.3,0.1,18.6,0.1,28.1c0,0.5,0.2,0.7,0.7,0.6l0.7-0.1C348.6,61.5,348.8,61.3,348.8,60.9L348.8,60.9z
		"/>
	<path class="st2" d="M130.2,28c-0.6,2.6-4.7,2.9-6.2,0.8c-2.8-4,2.5-8.3,5.8-4.8c0.1,0.1,0.2,0.2,0.2,0.4l0.3,0.8
		c0.1,0.1,0.2,0.2,0.4,0.2c0.1,0,0.1-0.1,0.1-0.1c0.3-0.4,0.4-0.8,0.7-1.1c2.6-2.9,7-0.9,6.5,2.9c-0.4,3.5-5.6,4.4-7,0.9
		c-0.1-0.2-0.4-0.4-0.6-0.3C130.3,27.8,130.2,27.9,130.2,28L130.2,28z"/>
	<path class="st2" d="M321.7,44.4c0.7,0,1-0.3,0.9-1l0-0.3c0-0.4-0.4-0.7-0.7-0.7c-2.5,0-5.4,0.3-7.6-0.5c-4.4-1.4-7.1-4.6-7.9-9.6
		c-0.1-0.5,0.1-0.7,0.6-0.7c4.9,0,9.8,0,14.9,0c6.2,0,11.2,4.5,11.3,10.8c0.1,4.1,0.1,8.1,0.1,11.9c0,0.5-0.2,0.7-0.7,0.7l-19.6,0
		c-0.2,0-0.3-0.1-0.3-0.3v-9.9c0-0.3,0.1-0.4,0.5-0.4L321.7,44.4L321.7,44.4z"/>
	<circle class="st2" cx="354.6" cy="36.4" r="3.7"/>
	<path class="st2" d="M142.6,72l-11.9,0.1c-0.3,0-0.6-0.2-0.6-0.6l0,0l0.2-26.9c0-0.5-0.2-0.8-0.8-0.7l-0.5,0.1
		c-0.4,0-0.7,0.4-0.7,0.8c0,3.9,0,7.7,0,11.5c0,4.5-0.4,7.1-3.4,10c-1.8,1.7-4.1,2.8-6.9,3.1c-0.2,0-0.4-0.1-0.5-0.4c0,0,0,0,0-0.1
		c0-8,0-16-0.1-24.1c0-3.5,1.1-6.4,3.4-8.7c2.6-2.5,5.4-3,9.3-3c3.6,0,7.1,0,10.6-0.1c0.1,0,0.3,0.1,0.3,0.3l0,0l-0.1,27.1
		c0,0.5,0.3,0.8,0.8,0.7l0.5,0c0.5,0,0.7-0.3,0.7-0.7c0-1,0.1-2.1,0.2-3.4c1.2-12.1,19.3-13.3,22.7-2.1c0.4,1.3,0.6,3.8,0.6,7.5
		c0,3.6,0,7.2,0,10.9c0,2.3-0.2,4.1-0.7,5.4c-4.3,11.4-22.9,8.8-22.8-4.3c0-1,0-1.8,0.1-2.2C142.9,72.2,142.7,72,142.6,72L142.6,72
		L142.6,72z M155.6,58.9c0-0.4-0.3-0.7-0.6-0.7h-0.8c-0.4,0-0.6,0.3-0.6,0.7l0,0l0,15.9c0,0.4,0.3,0.7,0.6,0.7h0.8
		c0.4,0,0.6-0.3,0.6-0.7C155.7,74.7,155.6,58.9,155.6,58.9z"/>
	<path class="st2" d="M321.3,68c0-0.2-0.1-0.3-0.3-0.3l0,0c-10.2,0-20.5,0.1-30.6-0.1c-6.6-0.1-10.6-6.3-10.2-12.5
		c0.4-6.5,5.1-10.8,11.6-10.8c5.8,0,11.5,0,17.3-0.1c0.2,0,0.4,0.2,0.4,0.4l0,0v9.6c0,0.4-0.3,0.7-0.7,0.7h-17.2
		c-0.5,0-0.8,0.3-0.8,0.8v0.5c0,0.5,0.2,0.8,0.8,0.8c9.9,0,19.9-0.1,29.9,0.1c4.3,0.1,8,2.7,9.6,6.4c0.6,1.4,0.9,3.6,1,6.6
		c0.1,4.5,0.1,9,0,13.6c0,0.2-0.2,0.4-0.4,0.4l-135.4,0c-0.1,0-0.2-0.1-0.2-0.2c-1.5-9,4.6-12.8,12.4-13.8c0.2,0,0.3,0.1,0.4,0.3
		c0,0,0,0,0,0.1l-0.1,2.4c0,0.3,0.2,0.5,0.5,0.5h0h111.9c0.1,0,0.2-0.1,0.2-0.2l0,0V68L321.3,68z"/>
	<path class="st2" d="M263.1,92.1c-0.4,0.5-0.5,1.1-1,1.5c-1.9,1.7-4.9,1.4-6-1.2c-1.9-4.5,5-7.5,6.7-2.8c0.1,0.2,0.3,0.3,0.4,0.2
		c0.1,0,0.2-0.1,0.2-0.2c1.5-3.8,7.1-2.8,7.2,1.2c0.1,4.2-5.4,5.4-7.2,1.3C263.4,91.9,263.3,91.9,263.1,92.1L263.1,92.1z"/>
</g>
</svg>
