<?xml version="1.0" encoding="utf-8"?>
<!-- Generator: Adobe Illustrator 27.1.1, SVG Export Plug-In . SVG Version: 6.00 Build 0)  -->
<svg version="1.1" id="Layer_1" xmlns="http://www.w3.org/2000/svg" xmlns:xlink="http://www.w3.org/1999/xlink" x="0px" y="0px"
	 viewBox="0 0 231.1 295.5" style="enable-background:new 0 0 231.1 295.5;" xml:space="preserve">
<style type="text/css">
	.st0{fill:none;stroke:#E88E90;stroke-width:0.8508;}
	.st1{fill:#182C5C;}
	.st2{fill:#D72427;}
	.st3{fill:#F8F8F8;}
</style>
<g>
	<g>
		<path vector-effect="non-scaling-stroke" class="st0" d="M134,25.5c0.3,1.5,0,2.8-0.5,4.3c0,0.3,0,0.5,0,0.8c0.8,0.8,1,1.8,1,2.8
			c0,1.3-0.8,3-0.8,4.3c0,8.5,0,17,0,25.3c0,0.3,0,0.3,0.3,0.5c2.5,0.8,3.5,2.3,3.3,4.5c0,0.8-0.8,2-0.8,2.5c0,1.3,0,2.5,0,3.8
			c0,0.3,0.3,0.5,0.5,0.8l64.6,26.5h0.3l0,0c-1.5-15.3-6.8-29-15.5-41.5c-0.3-0.5-0.5-1-0.5-1.5v-19c0-0.3,0-0.3-0.3-0.3L116,12.5
			c-0.3,0-0.5,0-1,0L45.7,39l-0.3,0.3c0,6.3,0,12.5,0,19c0,0.8-0.3,1.3-0.5,1.5c-8.5,12.3-13.5,25.5-15.3,40.3c0,0.3,0,0.5,0.5,0.3
			l64.6-26c0,0,0.3,0,0.3-0.3c0.3-1.8,0.3-3.3-0.3-5c-1-2.8-0.5-5,2.8-5.8c0.3,0,0.5-0.3,0.5-0.5c0-8.5,0-16.8,0-25.3
			c0-1-0.3-2-0.5-2.8c-0.5-1.8,0-3.3,1-4.5c0-0.3,0.3-0.3,0-0.5c0-0.5-0.3-0.8-0.5-1.3v-0.3v-2.8c0,0,0-0.3,0.3-0.3
			c2.5-1.3,5.3-1.3,8,0c0.3,0,0.3,0.3,0.3,0.3v2.8c0,0.3,0,0.3,0,0.3c-0.3,0.3-0.3,0.5-0.3,0.8s0,0.3,0.3,0.3H127
			c0.3,0,0.3-0.3,0.3-0.3s0,0,0-0.3l-0.5-0.8V28v-2.8c0-0.3,0-0.3,0.3-0.3C129,24,130.8,24.5,134,25.5C134,25.3,134,25.3,134,25.5"
			/>
		<path vector-effect="non-scaling-stroke" class="st0" d="M115.8,293.8l114.4-77.3c0.3-0.3,0.5-0.8,0.5-1l-0.3-10.3
			c0-0.3-0.3-0.3-0.3-0.3s0,0-0.3,0c-34.8,23.5-69.6,47-104.3,70.6c-0.3,0.3-0.5,0.5-0.5,0.8c-0.3,3-1.8,5-3.8,6.8
			c-6.3,4.3-13.5,0.5-14.8-6.8c0-0.3-0.3-0.8-0.5-0.8C71,252,36.2,228.2,1.2,204.4c-0.3-0.3-0.3,0-0.3,0.3l-0.5,10.5
			c0,0.5,0.3,0.8,0.5,1l114.9,78.1C115.5,293.8,115.8,294,115.8,293.8"/>
	</g>
	<path class="st1" d="M188.6,36.8L116,9c-0.3,0-0.5,0-0.8,0L42.5,36.8c-0.3,0-0.3,0.3-0.3,0.3c0,6.5,0,13,0,19.8
		c0,1-0.3,1.5-0.8,2.5c-8.8,12.8-13.8,26.8-15.3,42.3c0,0.3-0.3,0.5-0.5,0.5l-7.5,3h-0.3l0,0c1.5-17.8,6-36,15.5-51.3
		c0.3-0.3,0.3-0.5,0.3-0.8V31.8c0-0.3,0.3-0.3,0.3-0.5L115.3,0c0.3,0,0.5,0,0.8,0l80.8,31.3c0.3,0,0.5,0.3,0.5,0.5
		c0,6.3,0,12.3,0,18.5c0,1.5,0,2.8,0.8,4c9.5,15.5,14.3,33.8,15.3,51.8c0,0,0,0.3-0.3,0.3l0,0l-7.5-3c-0.3,0-0.5-0.3-0.5-0.5
		c-1.3-16.3-6.5-30.8-15.8-44c-0.3-0.5-0.5-1.3-0.5-2.3c0-6.3,0-12.8,0-19.3C189.1,37,188.8,36.8,188.6,36.8L188.6,36.8z"/>
	<path class="st2" d="M133.8,25.3c-3-0.8-4.8-1.3-7.8,0.3l-0.3,0.3v2.8v0.3l0.5,0.8v0.3l0,0h-20.5c-0.3,0-0.3,0-0.3-0.3
		s0.3-0.5,0.3-0.8s0-0.3,0-0.3v-2.8c0-0.3,0-0.3-0.3-0.3c-2.5-1.3-5.3-1.3-8,0l-0.3,0.3v2.8c0,0.3,0,0.3,0,0.3
		c0.3,0.3,0.5,0.8,0.5,1.3c0,0.3,0,0.3,0,0.5c-1.3,1.3-1.5,2.8-1,4.5c0.3,1,0.5,2,0.5,2.8c0,8.5,0,16.8,0,25.3
		c0,0.3-0.3,0.5-0.5,0.5c-3,1-3.8,3-2.8,5.8c0.5,1.5,0.8,3.3,0.3,5c0,0,0,0.3-0.3,0.3l-63.8,26c-0.3,0-0.5,0-0.5-0.3
		c1.8-14.8,6.8-28.3,15.3-40.3c0.3-0.5,0.5-1,0.5-1.5c0-6.3,0-12.5,0-19c0-0.3,0-0.3,0.3-0.3L115,12.5c0.3,0,0.8,0,1,0L185.3,39
		l0.3,0.3v19c0,0.5,0.3,1,0.5,1.5c8.8,12.5,14,26.3,15.5,41.5c0,0,0,0.3-0.3,0.3l0,0l-64.6-26.8c-0.3,0-0.5-0.3-0.5-0.8
		c0-1.3,0-2.5,0-3.8c0-0.8,0.8-1.8,0.8-2.5c0.3-2.3-0.8-3.8-3.3-4.5c-0.3,0-0.3-0.3-0.3-0.5c0-8.3,0-16.8,0-25.3
		c0-1.3,0.8-3,0.8-4.3c0-1-0.5-2-1-2.8c-0.3-0.3-0.3-0.5,0-0.8C134,28.3,134,27,133.8,25.3L133.8,25.3L133.8,25.3z"/>
	<path class="st1" d="M133.3,75.3C133.3,75.3,133.5,75.3,133.3,75.3c0,1.8,0.3,3.3,0,4.8c0,0.3,0,0.8,0,1c0,1.3,0,2.3,0,3.5
		c0,0.3-0.3,0.3-0.3,0.3l0,0h-2.8l0,0l0,0l0,0l0,0h2.8c0.3,0,0.3,0.3,0.3,0.3v3.8c0,0.3,0,0.3,0,0.5c0,0.3,0,0.3,0,0.5
		c0,0,0.3,0.3,0.3,0.5v3.8c0,0,0,0.3-0.3,0.3s-0.3,0.3,0,0.5c0,0,0.3,0.3,0.3,0.5c0,2.5,0,5,0,7.5c0,1.3,0.8,2,2,2.3
		c0.5,0,0.8,0.5,0.8,1v0.3c-0.5,0.8-0.8,1.5-1,2.3c0,0.3,0,0.3-0.3,0.3h-3.3c0,0-0.3,0-0.3,0.3v0.3l0,0h3.5c0.3,0,0.3,0.3,0.3,0.3
		l0,0v3.8c0,0.3,0,0.5-0.5,0.3c-1-0.3-2-0.3-2.8-0.3c-1,0.3-1,0.3,0,0.5c0.8,0,1.8,0,2.8,0c0.3,0,0.5,0,0.5,0.5v3.8
		c0,0.3,0,0.3-0.3,0.3l0,0h-3.5l0,0l0,0l0,0h3.5c0.3,0,0.3,0,0.3,0.3l0,0v3.8c0,0.5-0.3,0.5-0.5,0.5h-3.3h-0.3l0,0l0,0h3.5
		c0.3,0,0.5,0.3,0.5,0.5v3.8c0,0.3-0.3,0.5-0.5,0.5l0,0h-3.3l0,0v0.3c0,0,0,0.3,0.3,0.3l0,0h3.3c0.3,0,0.5,0.3,0.5,0.5v3.8
		c0,0.3,0,0.3-0.3,0.3l0,0c-1.3,0-2.5,0-3.5,0l0,0v0.3l0,0h3.5c0.3,0,0.3,0.3,0.3,0.3v3.8c0,0.3,0,0.3-0.3,0.3h-3.5l0,0l0,0v0.3l0,0
		h3.5c0.3,0,0.5,0.3,0.5,0.5l0,0c0,1.5-0.5,4.3,0.5,5.3c1,1.3,3,0.5,2.5,3c0,0.3,0,0.3-0.3,0.3c-1,0-2.3,0-3.3,0l0,0l0,0v0.3h3.3
		c0,0,0.3,0,0.3,0.3l0,0v10c0,0.3,0,0.5,0.3,0.5l21.8,8.8c0.3,0,0.3,0,0.5,0c6-4,11.5-8.5,16.3-13.8c0.3-0.3,0.3-0.3,0-0.5
		l-38.8-15.5c-0.3,0-0.3-0.3-0.3-0.5v-17.3v-0.3l0,0l47.8,19.5c0.3,0,0.5,0,0.5-0.3c3.3-5.5,6-11.3,8-17.3c0-0.3,0-0.5-0.3-0.5
		l-57.8-22.3c0,0-0.3,0-0.3-0.3V79.1c0,0,0-0.3,0.3-0.3l0,0l88.6,36.3c0.3,0,0.3,0.3,0.5,0.5l4.3,84.6c0,0.3,0,0.5-0.3,0.5
		l-105.1,70.8h-0.3l0,0c-3.3-7.5-13.8-7.8-17-0.3c0,0.3-0.3,0.3-0.5,0.3l0,0L1.2,200.2l-0.3-0.3l4.5-85.1c0-0.3,0.3-0.5,0.5-0.8
		l88.8-36H95l0,0v19c0,0.3,0,0.5-0.3,0.5l-58.1,23l-0.3,0.3c2,6.3,4.8,12,8,17.5c0,0.3,0.3,0.3,0.5,0.3l47.8-19c0.3,0,0.3,0,0.3,0.3
		v17.3c0,0.3,0,0.5-0.3,0.5L54,153.1l-0.3,0.3l0,0c4.8,5.3,10,9.8,15.8,13.5c0.3,0.3,0.5,0.3,0.8,0l21.5-8.5c0.3,0,0.5-0.5,0.5-0.8
		c0-3.5,0-7,0-10.5c0-0.8,0-1.3,0.3-1.5c0.5-1,1.5-0.5,2-1.3c0.5-0.5,0.8-1.3,1-2.3c0-2.5,0-4.8,0-7.3c0,0,0-0.5,0-1
		c0-1.3,0-2.5,0-3.8c0-2.5,0-5.3,0-7.8c0-1.8,0-3.5,0-5c0-2,0-3.3,0-4.5c0-1,0-2.3,0-3.3c0-0.8,0-1.3-0.3-1.8c-0.5-1-1.5-2.5,0.3-3
		c2-0.8,1.8-2.5,1.8-4.3c0-0.5,0.3-1,0-1.8c-0.3-1,0-2.3,0-3.3c0-0.5,0.3-1,0-1.8c0-0.3,0-0.5,0-0.8c0-4,0-7.8,0-11.8
		c0,0,0-0.5,0-1.3c0-0.5,0-1.3,0-1.8c0-1,0-2.3,0-3.3c0-0.3,0-0.5,0-1c-0.3-1.8,0.8-5.3-0.8-7.3c-0.3-0.3-0.3-1,0-1.3l0.3-0.3
		c1.5-0.3,2.8-0.8,3-2.5c0-1,0-2.8,0-5c0-0.5,0-1.5,0-2.3c0-0.5,0-0.8,0-1c0-5.8,0-11.3,0-17c0-1.8,0-3-0.8-4.8
		c-0.3-0.5,0-1,0.3-1.3c1.5-1.3,1.3-3.5,0.5-5c0-0.3,0-0.5,0.3-0.5c0,0,0,0,0.3,0h2c0.3,0,0.5,0.3,0.5,0.3s0,0,0,0.3
		c-1,2.3-0.8,4.8,2.3,4.8c7,0,13.8,0,20.8,0c2.8,0,3.8-2.5,2.5-4.8c0-0.3,0-0.5,0.3-0.5l0,0c0.8-0.3,1.3-0.3,2,0
		c0.3,0,0.5,0.3,0.5,0.5c0,0,0,0,0,0.3c-0.5,1-1,4,0.3,4.8c0.5,0.3,0.8,0.8,0.5,1.3l0,0c-0.3,0.3-0.3,0.8-0.5,1
		c-0.3,0.8,0,1.5-0.3,2.3c0,0.3,0,0.3-0.3,0.3H128l0,0v0.3c0,0.3,0,0.3,0.3,0.3h2.8c0.3,0,0.3,0,0.3,0.3l0,0v4c0,0.3,0,0.3-0.3,0.3
		l0,0c-1,0-1.8,0-2.8,0l0,0l0,0c0,0,0,0.3,0.3,0.3h2.5c0.3,0,0.3,0,0.3,0.3l0,0v4c0,0.3-0.3,0.5-0.5,0.5l0,0h-2.5H128l0,0l0,0h2.5
		c0.3,0,0.3,0.3,0.3,0.3v3.8c0,0.3,0,0.5-0.5,0.5h-2.5l0,0l0,0l0,0h2.5c0.3,0,0.5,0.3,0.5,0.5v8.5c0,0.3-0.3,0.3-0.3,0.3l0,0h-2.8
		l0,0v0.3l0,0h2.8c0.3,0,0.3,0,0.3,0.3c0,1.3,0,2.8,1,3.5c0.5,0.5,1.3,0.5,2,0.5c0.5,0,0.8,0.5,0.5,1v0.3c-1.5,2-0.8,5-0.8,7.5
		c0,0.3,0,0.3-0.3,0.5C133.3,75.1,133.3,75.1,133.3,75.3L133.3,75.3z M129.5,34.5c0-0.3-0.3-0.3-0.3-0.3h-27.5
		c-0.3,0-0.3,0.3-0.3,0.3l0,0c0,0.3,0.3,0.3,0.3,0.3h27.5C129.5,34.8,129.5,34.8,129.5,34.5L129.5,34.5L129.5,34.5z M108.8,48.8
		L108,49c-0.3,0-0.3,0.3-0.3,0.3v15v0.3h14.5c0.3,0,0.3,0,0.3-0.3c0-4.5,0-9,0-13.3c0-1-0.3-1.5-0.8-2c-0.3-0.3-0.5-0.5-0.3-1
		c1-2.5,1.8-4.8,0-7.5c-1.3-2-3-3.3-5.5-4.3c-1-0.3-1.8-0.3-2.5,0.3C109,39,106,43,109,48.3C109.3,48.3,109.3,48.5,108.8,48.8
		L108.8,48.8z M103,37c0,0-0.5-0.3-1.3-0.3l0,0c-0.8,0-1.3,0-1.3,0.3l0,0c0,0,0.5,0.3,1.3,0.3l0,0C102.5,37.3,103,37.3,103,37
		L103,37z M103,41.8c0,0-0.5-0.3-1.3-0.3l0,0c-0.5,0-1.3,0-1.3,0.3c0,0,0.5,0.3,1.3,0.3l0,0C102.5,42,103,42,103,41.8z M103,46.5
		c0,0-0.5-0.3-1.3-0.3c-0.5,0-1.3,0-1.3,0.3l0,0c0,0,0.5,0.3,1.3,0.3S103,46.8,103,46.5L103,46.5z M103,51.5c0,0-0.5-0.3-1.3-0.3
		c-0.5,0-1.3,0-1.3,0.3l0,0c0,0,0.5,0.3,1.3,0.3C102.5,51.5,103,51.5,103,51.5L103,51.5z M102.8,56.1h-2l0,0l0,0l0,0H102.8
		L102.8,56.1L102.8,56.1C102.8,56.3,102.8,56.1,102.8,56.1L102.8,56.1z M130.3,56.3c0,0-0.5-0.3-1.3-0.3s-1.3,0-1.3,0l0,0
		c0,0,0.5,0.3,1.3,0.3C129.8,56.6,130.3,56.6,130.3,56.3L130.3,56.3z M103,61.1c0,0-0.5-0.3-1.3-0.3l0,0c-0.8,0-1.3,0-1.3,0.3l0,0
		c0,0,0.5,0.3,1.3,0.3S103,61.1,103,61.1L103,61.1z M129.5,67.3c0-0.3,0-0.3-0.3-0.3h-27.5c-0.3,0-0.3,0-0.3,0.3l0,0l0,0
		c0,0.3,0,0.3,0.3,0.3h27.5C129.5,67.6,129.5,67.6,129.5,67.3L129.5,67.3z M101,70.1L101,70.1l-2.8-0.3c0,0-0.3,0-0.3,0.3l0,0l0,0
		c0,0,0,0.3,0.3,0.3L101,70.1C100.8,70.3,101,70.3,101,70.1L101,70.1L101,70.1z M133,70.1c0,0-0.5-0.3-1.5-0.3l0,0
		c-0.8,0-1.5,0-1.5,0.3c0,0,0.5,0.3,1.5,0.3l0,0C132.3,70.3,133,70.3,133,70.1z M129.3,86.1c0-7.5-6.3-13.8-13.8-13.8l0,0
		c-7.5,0-13.8,6.3-13.8,13.8s6.3,13.8,13.8,13.8S129.3,93.6,129.3,86.1L129.3,86.1z M101,75.1C101,75.1,101,74.8,101,75.1l-2.8-0.3
		c0,0-0.3,0-0.3,0.3l0,0c0,0,0,0.3,0.3,0.3L101,75.1C100.8,75.3,101,75.1,101,75.1L101,75.1L101,75.1z M133,75.1
		c0,0-0.8-0.3-1.5-0.3s-1.5,0-1.5,0.3l0,0c0,0,0.8,0.3,1.5,0.3S133,75.1,133,75.1L133,75.1z M101.3,79.8c0,0-0.8-0.3-1.5-0.3
		s-1.5,0-1.5,0.3l0,0c0,0,0.8,0.3,1.5,0.3S101.3,80.1,101.3,79.8L101.3,79.8z M132.8,79.8c-1-0.3-1.8-0.3-2.3,0
		c-0.3,0-0.3,0.3,0,0.3c1,0,1.8,0,2.8,0l0,0C133,79.8,133,79.8,132.8,79.8L132.8,79.8z M100.8,84.8
		C100.8,84.8,100.8,84.6,100.8,84.8L98,84.6c0,0-0.3,0-0.3,0.3l0,0l0,0c0,0,0,0.3,0.3,0.3L100.8,84.8
		C100.8,85.1,100.8,84.8,100.8,84.8L100.8,84.8L100.8,84.8z M101,89.6C101,89.6,100.8,89.6,101,89.6L101,89.6l-2.5-0.3l0,0l0,0l0,0
		l0,0l0,0L101,89.6C100.8,89.8,101,89.8,101,89.6L101,89.6L101,89.6z M133,89.8c0,0-0.5-0.3-1.5-0.3c-0.8,0-1.5,0-1.5,0.3
		c0,0.3,0.5,0.3,1.5,0.3C132.3,89.8,133,89.8,133,89.8z M101,94.6C101,94.6,101,94.3,101,94.6l-2.8-0.3c0,0-0.3,0-0.3,0.3l0,0
		c0,0,0,0.3,0.3,0.3L101,94.6C100.8,94.8,101,94.6,101,94.6L101,94.6z M133,94.6c0,0-0.5-0.3-1.5-0.3l0,0c-0.8,0-1.5,0-1.5,0.3
		c0,0,0.5,0.3,1.5,0.3l0,0C132.3,94.8,133,94.6,133,94.6z M100.8,99.3h-2.5l0,0l0,0c0,0,0,0.3,0,0H100.8
		C101,99.6,101,99.6,100.8,99.3L100.8,99.3C101,99.3,101,99.3,100.8,99.3z M132.8,99.3l-2.3-0.3l0,0l0,0c0,0,0,0,0.3,0L132.8,99.3
		C132.8,99.6,132.8,99.6,132.8,99.3L132.8,99.3L132.8,99.3L132.8,99.3z M129.5,106.3C129.5,106.1,129.3,106.1,129.5,106.3
		L129.5,106.3l-27.5-0.3c-0.3,0-0.3,0.3-0.3,0.3l0,0c0,0.3,0.3,0.5,0.3,0.5l0,0h27.3C129.5,106.6,129.5,106.3,129.5,106.3
		L129.5,106.3L129.5,106.3z M99.5,108.8c0,0-0.8-0.3-1.8-0.3l0,0c-1,0-1.8,0-1.8,0.3c0,0.3,0.8,0.3,1.8,0.3l0,0
		C98.8,109.1,99.5,109.1,99.5,108.8z M106.8,141.4H124c0.3,0,0.5-0.3,0.5-0.5v-21.3c0-5-4-9.3-9-9.3l0,0c-5,0-9,4-9,9.3l0,0v21.3
		C106.3,141.1,106.5,141.4,106.8,141.4L106.8,141.4z M99.5,113.6C99.5,113.6,99.3,113.6,99.5,113.6l-2.8-0.3c0,0-0.3,0-0.3,0.3l0,0
		l0,0c0,0,0,0.3,0.3,0.3L99.5,113.6C99.3,113.9,99.5,113.9,99.5,113.6L99.5,113.6z M99.5,118.6C99.5,118.6,99.5,118.4,99.5,118.6h-3
		c0,0-0.3,0-0.3,0.3l0,0c0,0,0,0.3,0.3,0.3L99.5,118.6C99.3,118.9,99.5,118.6,99.5,118.6L99.5,118.6z M99.5,123.4
		c0,0-0.8-0.3-1.8-0.3l0,0c-1,0-1.8,0-1.8,0.3l0,0c0,0,0.8,0.3,1.8,0.3S99.5,123.6,99.5,123.4z M99.5,128.4
		C99.5,128.4,99.3,128.4,99.5,128.4l-2.8-0.3h-0.3l0,0c0,0,0,0.3,0.3,0.3H99.5C99.3,128.6,99.5,128.6,99.5,128.4L99.5,128.4
		L99.5,128.4z M99.3,133.1C99.3,133.1,99.3,132.9,99.3,133.1L99.3,133.1h-2.8c0,0-0.3,0-0.3,0.3l0,0l0,0c0,0,0,0.3,0.3,0.3l0,0
		L99.3,133.1C99.3,133.4,99.3,133.4,99.3,133.1L99.3,133.1L99.3,133.1z M99.5,138.1C99.5,138.1,99.3,137.9,99.5,138.1l-3-0.3
		c0,0-0.3,0-0.3,0.3l0,0c0,0,0,0.3,0.3,0.3L99.5,138.1C99.3,138.4,99.5,138.1,99.5,138.1L99.5,138.1L99.5,138.1z M129.5,144.6
		C129.5,144.4,129.3,144.4,129.5,144.6L129.5,144.6l-27.8-0.3c-0.3,0-0.3,0.3-0.3,0.3l0,0l0,0c0,0.3,0.3,0.3,0.3,0.3l0,0
		L129.5,144.6C129.3,144.9,129.5,144.9,129.5,144.6L129.5,144.6z M96,147.4c0,0-0.8-0.3-1.5-0.3l0,0c-0.8,0-1.5,0-1.5,0.3l0,0
		c0,0,0.8,0.3,1.5,0.3S96,147.6,96,147.4z M119.3,159.4L119.3,159.4C119,159.1,119,159.1,119.3,159.4c1-1.5,2-3.3,2-4.8
		c-0.3-3-4.8-3-4.8,0.5c0,0.3,0,0.3,0.3,0.3s0.8,0,1,0c0,0,0.3,0,0.3-0.3c0-0.5,0.3-1.3,1-1.3c0.3,0,0.5,0.3,0.5,0.8
		c0.3,1.8-2.3,4.5-3.3,6v0.3l0,0h4.5c0.3,0,0.5-0.3,0.5-0.5v-0.5c0-0.3-0.3-0.5-0.5-0.5H119.3L119.3,159.4z M126.8,156.6
		c-0.3,0-0.3-0.3,0-0.5c0.8-0.8,1-1.5,0.8-2.3c-0.5-2.5-4.8-2.3-4.8,0.5c0,0.3,0,0.3,0.3,0.3c0.8,0,1.3,0,1.5-0.5
		c0.3-0.3,0.8-0.5,1-0.3c0,0,0,0,0.3,0.3c1.3,1.8-1.8,1.5-1.3,3l0.3,0.3c1.8,0.3,1.3,2.5,0,2.3c-1-0.3-0.8-1.5-2.3-1
		c0,0-0.3,0-0.3,0.3c0.5,3.3,5,3,5-0.3C127.8,157.6,127.5,157.1,126.8,156.6L126.8,156.6z M107.3,159.4c-0.3,0-0.5,0-0.5-0.3v-0.3
		c1-1,1.8-2,2-3.5c0.8-3.8-4.8-4-4.8-0.5c0,0.3,0,0.3,0.3,0.3c0.3,0,0.8,0,1,0c0.3,0,0.3,0,0.3-0.3s0.3-0.5,0.3-0.8
		c0.3-0.5,0.5-0.8,1-0.5c0.3,0.3,0.5,0.5,0.5,1c-0.3,2-2.3,4.3-3.5,5.5v0.3l0,0h4.5c0.5,0,0.8-0.3,0.8-0.8l0,0
		c0-0.5-0.3-0.5-0.8-0.5L107.3,159.4L107.3,159.4z M113,160.9c1.5,0,2.5-2,2.5-4.5c0-2.5-1.3-4.5-2.5-4.3l0,0c-1.5,0-2.5,2-2.5,4.5
		l0,0C110.3,159.1,111.5,160.9,113,160.9L113,160.9z M114.8,199.7C114.8,199.7,114.5,199.7,114.8,199.7L114.8,199.7
		c-10.5,0.3-20.8,0.3-30.8,0.3c-3,0-9.8,0.8-9.8,5.3c0,5.3,0,10.3-0.3,15.5c0,0.3,0,0.3,0.3,0.3l0,0c3.3-0.3,5.5-2,7-4.8
		c1.3-2.5,1-5.5,0.8-8.3c0-0.3,0-0.3,0.3-0.3l0,0c14.3,0,28.8,0,43,0c3.3,0,5-0.5,7.3-2.5c1.5-1.5,2.3-3.3,2.3-5c0-6,0-12.3,0-18.5
		c0-0.3,0.3-0.5,0.5-0.5l0,0h0.3c0.5,0,0.8,0.3,0.8,0.8c0,5.8,0,11.3,0,16.8c0,1.5,0.3,2.8,0.5,3.8c1.3,3,3.5,4.8,7.3,5.5
		c0.3,0,0.5,0,0.5-0.3l0,0v-33.8c0-0.3,0-0.3-0.3-0.3c-3,0-5.8,0-8.8,0c-3.5,0-6.8,2-8,5.3c-0.3,0.8-0.5,2.3-0.5,4.5
		c0,5.5,0,11,0,16.5c0,0.3,0,0.3-0.3,0.3H123c-0.3,0-0.5-0.3-0.5-0.5l0,0c0.3-3.5,0.5-6.5-2.3-9.3c-2.3-2.3-4.3-2.5-7.5-2.5
		c-6.8,0-13.8,0-20.5,0c-0.3,0-0.3-0.3-0.3-0.3v-5c0-0.3,0.3-0.3,0.3-0.3h20.5c0.3,0,0.3,0.3,0.3,0.3l0,0v1.8c0,0.3,0,0.3,0.3,0.3
		l0,0c5.8-1,10.3-3.5,9.3-10c0-0.3-0.3-0.5-0.5-0.5H84.3c-0.3,0-0.5,0.3-0.5,0.5l0,0c0,3.8,0,7.5,0,11c0,2,0,3.3,0.5,4
		c1,3.3,4.5,5.8,7.5,5.8c7.5,0,15,0,22.5,0c0,0,0.3,0,0.3,0.3L114.8,199.7L114.8,199.7z M71,179.2c-1.3-2.8-4-5-7-5
		c-0.3,0-0.3,0.3-0.3,0.3l0,0c0,12,0,24,0,35.8c0,2.5,0.3,4.3,0.5,5.3c1.3,3.3,4,5,7.3,5.5c0,0,0.3,0,0.3-0.3l0,0
		c0-12.3,0-24.5,0-36.8C71.7,181.7,71.5,180.2,71,179.2L71,179.2z M197.6,203.4h-0.5c-0.3,0-0.5-0.3-0.5-0.5c0-7,0-14,0-21
		c0-4.5-3.5-7.5-7.8-8c0,0-0.3,0-0.3,0.3l0,0v36.5c0,0.3,0.3,0.5,0.5,0.5c2.8,0,5.5,0,8.3,0c4.8,0,8.5-3.5,8.5-8.3s0-9.5,0-14.3
		c0-0.3,0-0.3-0.3-0.3c-4.5,0.3-8,4-8,8.5c0,2,0,3.8,0,5.5C198.1,203.2,197.9,203.2,197.6,203.4L197.6,203.4z M34.2,178.4
		c0-0.3,0.3-0.3,0.5-0.3s0.3,0,0.3,0.3c1,2.8,5,2,5.3-0.8s-3-4.5-5-2.3c-0.3,0.3-0.3,0.5-0.5,0.8c0,0-0.3,0.3-0.3,0l0,0l-0.3-0.5
		c0,0,0-0.3-0.3-0.3c-2.5-2.5-6.5,0.5-4.3,3.5C30.7,180.4,34,180.2,34.2,178.4L34.2,178.4z M177.8,190.7h-6.5c-0.3,0-0.3,0-0.3,0.3
		v7.5c0,0,0,0.3,0.3,0.3h14.8c0.3,0,0.5-0.3,0.5-0.5c0-3,0-5.8,0-9c0-4.8-3.8-8-8.5-8c-3.8,0-7.5,0-11,0c-0.5,0-0.5,0.3-0.5,0.5
		c0.8,3.8,2.8,6,6,7.3c1.8,0.5,3.8,0.3,5.8,0.3c0.3,0,0.5,0.3,0.5,0.5v0.3C178.6,190.2,178.3,190.4,177.8,190.7L177.8,190.7z
		 M205.1,184.7c0-1.5-1.3-2.8-2.8-2.8l0,0c-1.5,0-2.8,1.3-2.8,2.8s1.3,2.8,2.8,2.8S205.1,186.2,205.1,184.7z M43.7,211.4
		c0,0.3,0,1,0,1.8c0,9.8,13.8,11.8,17,3.3c0.3-1,0.5-2.3,0.5-4c0-2.8,0-5.5,0-8.3c0-2.8-0.3-4.5-0.5-5.5c-2.5-8.3-16-7.5-17,1.5
		c0,1,0,1.8,0,2.5c0,0.3-0.3,0.5-0.5,0.5H43c-0.3,0-0.5-0.3-0.5-0.5v-20.3c0,0,0-0.3-0.3-0.3l0,0c-2.8,0-5.3,0-8,0c-3,0-5,0.3-7,2.3
		c-1.8,1.8-2.5,4-2.5,6.5c0,6,0,12,0,18c0,0.3,0.3,0.3,0.3,0.3l0,0c2-0.3,3.8-1,5.3-2.3c2.3-2.3,2.5-4.3,2.5-7.5c0-3,0-5.8,0-8.8
		c0-0.3,0.3-0.5,0.5-0.5h0.5c0.5,0,0.5,0.3,0.5,0.5L34,210.9c0,0.3,0.3,0.5,0.5,0.5l0,0h9C43.7,211.2,43.7,211.4,43.7,211.4
		L43.7,211.4L43.7,211.4z M177.3,208.2v4c0,0,0,0.3-0.3,0.3H93.5c-0.3,0-0.5-0.3-0.5-0.5l0,0v-1.8c0-0.3,0-0.3-0.3-0.3l0,0
		c-5.8,0.8-10.5,3.5-9.3,10.3c0,0,0,0.3,0.3,0.3h101.3c0.3,0,0.3-0.3,0.3-0.3c0-3.5,0-6.8,0-10.3c0-2.3-0.3-4-0.8-5
		c-1.3-2.8-4-4.8-7.3-4.8c-7.5-0.3-15,0-22.3,0c-0.5,0-0.5-0.3-0.5-0.5v-0.3c0-0.5,0.3-0.5,0.5-0.5h13c0.3,0,0.5-0.3,0.5-0.5v-7.3
		c0-0.3-0.3-0.3-0.3-0.3l0,0c-4.3,0-8.8,0-13,0c-5,0-8.5,3.3-8.8,8c-0.3,4.8,2.8,9.3,7.8,9.3C161.8,208.2,169.6,207.9,177.3,208.2
		C177.3,207.9,177.3,208.2,177.3,208.2L177.3,208.2L177.3,208.2z M134.3,226.5c1.3,3,5.5,2.3,5.5-1c0-3-4.3-3.8-5.5-0.8
		c0,0.3-0.3,0.3-0.3,0.3s0,0-0.3-0.3c-1.3-3.5-6.5-1.3-5,2c0.8,2,3,2.3,4.5,0.8C133.5,227.2,133.8,226.7,134.3,226.5
		C134,226.2,134,226.2,134.3,226.5L134.3,226.5z M113.3,254c-0.3,0-0.5-0.3-0.5-0.5v-4.3c0-0.3-0.3-0.3-0.3-0.3h-3.3
		c-0.3,0-0.3,0-0.3,0.3c0,1.5-0.3,4.3,0.3,5.8c0.8,2.3,4.5,2.5,6.5,2c2-0.5,3-1.5,3.3-3.5c0.3-2.5,0.3-4.3-1.3-5.8
		c-1-1-2-2.3-3.3-3.3c-0.8-0.8-2-4-0.8-4.5c0.3-0.3,0.8,0,0.8,0.3v0.3v3c0,0.3,0.3,0.5,0.5,0.5h3c0.3,0,0.5-0.3,0.5-0.5
		c0-1.3,0.3-3.5-0.5-4.5c-1-2.3-4.8-2.3-6.8-1.5c-2.5,0.8-2.5,3-2.5,5.3c0,2.8,2.5,4.5,4.3,6.3c1.3,1.3,1.3,3,1.3,4.8
		C114.3,254,114,254,113.3,254L113.3,254L113.3,254z M130.3,254c-0.5,0-0.5,0-0.5-0.5V240c0-0.3,0.3-0.5,0.5-0.5l0,0h0.3
		c0.3,0,0.5,0.3,0.5,0.5v3.8c0,0.3,0,0.3,0.3,0.3h3.5c0.3,0,0.3,0,0.3-0.3c0-1.5,0-3-0.3-4.5c-0.5-3.5-9.3-3.5-9.3,1.3
		c0,2.8,0,7,0,13c0,5,9.5,4.5,9.5,0.3c0-1.5,0-3,0-4.5c0-0.3,0-0.3-0.3-0.3l0,0h-3.5c-0.3,0-0.3,0.3-0.3,0.3v4.8
		C130.8,254,130.5,254,130.3,254L130.3,254L130.3,254z M96.3,250.2C96.3,250,96.5,250,96.3,250.2l1.5,6c0,0.3,0.3,0.5,0.5,0.5h4
		c0.3,0,0.3-0.3,0.3-0.3l0,0l-2.8-9.5c-0.3-0.5-0.3-1.3,0-2l2.3-7.8c0-0.3,0-0.3-0.3-0.3l0,0h-3.3c-0.3,0-0.5,0.3-0.5,0.3
		c-0.5,2-1,3.5-1.3,4.8c-0.3,1-0.5,1-0.5,0v-4.8c0-0.3,0-0.3-0.3-0.3h-3.8c-0.3,0-0.3,0-0.3,0.3v19.3c0,0.3,0,0.3,0.3,0.3h4
		c0,0,0.3,0,0.3-0.3l0,0C96.5,254.5,96.5,252.5,96.3,250.2L96.3,250.2L96.3,250.2z"/>
	<path class="st3" d="M101.8,34h27.5c0.3,0,0.3,0.3,0.3,0.3l0,0c0,0.3-0.3,0.3-0.3,0.3h-27.5c-0.3,0-0.3-0.3-0.3-0.3l0,0
		C101.5,34.3,101.5,34,101.8,34z"/>
	<path class="st3" d="M108.8,48.8c0.3,0,0.5-0.3,0.3-0.8l0,0c-3-5.3-0.3-9.3,4.5-11.8c0.8-0.5,1.5-0.5,2.5-0.3
		c2.5,1,4.3,2.3,5.5,4.3c1.8,2.8,1,5,0,7.5c0,0.3,0,0.8,0.3,1c0.5,0.5,0.8,1.3,0.8,2c0,4.3,0,8.8,0,13.3c0,0.3,0,0.3-0.3,0.3H108
		c0,0-0.3,0-0.3-0.3V49c0-0.3,0-0.3,0.3-0.3C108,49,108.8,48.8,108.8,48.8z M111.3,48.3c-0.8,0.8-0.8,1.3-1.8,2l-0.3,0.3v12
		c0,0.3,0,0.3,0.3,0.3h10.8c0.3,0,0.3-0.3,0.3-0.3l0,0c0-3.8,0-7.3,0-10.8c0-1.5-0.8-2.5-1.8-3.3v-0.3c0.3-0.3,0.8-0.8,0.8-1
		c2.8-4.3-0.8-8-4.8-9.5c-0.3,0-0.5,0-0.5,0c-2.5,1-4.8,3-5.3,5.5c-0.5,2.3,0.5,3.5,1.8,5C111.5,48.3,111.5,48.3,111.3,48.3
		L111.3,48.3z"/>
	
		<ellipse transform="matrix(2.443227e-02 -0.9997 0.9997 2.443227e-02 62.13 137.8571)" class="st3" cx="101.7" cy="37.1" rx="0.3" ry="1.3"/>
	<path class="st1" d="M111.3,48c-1.3-1.8-2.3-2.8-1.8-5c0.5-2.5,2.8-4.5,5.3-5.5c0.3,0,0.5,0,0.5,0c3.8,1.5,7.5,5,4.8,9.5
		c-0.3,0.3-0.5,0.8-0.8,1v0.3c1,1,1.5,2,1.8,3.3c0,3.5,0.3,7.3,0,10.8c0,0.3-0.3,0.3-0.3,0.3h-11c-0.3,0-0.3-0.3-0.3-0.3V50.5
		c0,0,0-0.3,0.3-0.3c0.8-0.8,1-1.3,1.8-2C111.5,48.3,111.5,48.3,111.3,48L111.3,48z M117.8,48c0.3-0.3,0.5-0.8,1-1
		c3.3-3.8,0.3-7-3.3-8.5c-0.3,0-0.5,0-0.8,0c-3.5,1.8-6,5-2.8,8.8c0.3,0.3,0.5,0.5,1,0.8c0.3,0,0.3,0.3,0.3,0.5l0,0
		c-0.8,0.5-1.5,1.3-2,2.3c-0.3,0.5-0.5,1-0.5,1.8c0,3,0,6,0,9c0,0.3,0,0.3,0.3,0.3l0,0h8.8c0.3,0,0.3,0,0.3-0.3c0-3,0-6.3,0-9.3
		c0-1.8-1-2.8-2.3-3.8C117.5,48.5,117.5,48.3,117.8,48L117.8,48L117.8,48z"/>
	<path class="st3" d="M117.8,48.5c1.3,1,2.3,2,2.3,3.8c0,3.3,0,6.3,0,9.3c0,0.3,0,0.3-0.3,0.3h-9c-0.3,0-0.3-0.3-0.3-0.3l0,0
		c0-3,0-6,0-9c0-0.8,0.3-1.3,0.5-1.8c0.5-0.8,1.3-1.5,2-2.3c0.3,0,0.3-0.3,0-0.5l0,0c-0.3-0.3-0.5-0.5-1-0.8c-3.3-3.8-0.8-7,2.8-8.8
		c0.3,0,0.5,0,0.8,0c3.5,1.5,6.5,5,3.3,8.5c-0.3,0.3-0.5,0.8-1,1C117.8,48,117.8,48.3,117.8,48.5L117.8,48.5L117.8,48.5z"/>
	
		<ellipse transform="matrix(3.490556e-03 -1 1 3.490556e-03 59.5725 143.6789)" class="st3" cx="101.9" cy="41.9" rx="0.3" ry="1.3"/>
	
		<ellipse transform="matrix(0.9998 -2.094162e-02 2.094162e-02 0.9998 -0.9576 2.1415)" class="st3" cx="101.8" cy="46.8" rx="1.3" ry="0.3"/>
	
		<ellipse transform="matrix(2.268933e-02 -0.9997 0.9997 2.268933e-02 48.1173 152.1364)" class="st3" cx="101.9" cy="51.5" rx="0.3" ry="1.3"/>
	<path class="st3" d="M102.8,56.1L102.8,56.1v0.3l0,0h-2l0,0l0,0l0,0L102.8,56.1L102.8,56.1z"/>
	
		<ellipse transform="matrix(2.443227e-02 -0.9997 0.9997 2.443227e-02 69.4533 183.8339)" class="st3" cx="128.9" cy="56.3" rx="0.3" ry="1.3"/>
	
		<ellipse transform="matrix(0.9999 -1.221762e-02 1.221762e-02 0.9999 -0.7383 1.2479)" class="st3" cx="101.8" cy="61.1" rx="1.3" ry="0.3"/>
	<path class="st3" d="M101.8,67.1h27.5c0.3,0,0.3,0,0.3,0.3l0,0c0,0.3,0,0.3-0.3,0.3h-27.5c-0.3,0-0.3,0-0.3-0.3l0,0
		C101.5,67.1,101.5,67.1,101.8,67.1z"/>
	<path class="st3" d="M98,70.3L98,70.3C98,70.1,98,70.1,98,70.3l2.8-0.3c0,0,0.3,0,0.3,0.3l0,0c0,0,0,0.3-0.3,0.3L98,70.3L98,70.3z"
		/>
	
		<ellipse transform="matrix(1.745407e-02 -0.9998 0.9998 1.745407e-02 59.1491 200.7979)" class="st3" cx="131.7" cy="70.3" rx="0.3" ry="1.5"/>
	<path class="st3" d="M129.3,86.1c0,7.5-6.3,13.8-13.8,13.8l0,0c-7.5,0-13.8-6.3-13.8-13.8s6.3-13.8,13.8-13.8
		S129.3,78.6,129.3,86.1L129.3,86.1z M127.5,86.3c0-6.5-5.3-12-12-12l0,0c-6.5,0-12,5.3-12,12l0,0c0,6.5,5.3,12,12,12
		S127.5,92.8,127.5,86.3L127.5,86.3z"/>
	<path class="st1" d="M127.5,86.3c0,6.5-5.3,12-12,12l0,0c-6.5,0-12-5.3-12-12s5.3-12,12-12l0,0C122.3,74.3,127.5,79.6,127.5,86.3
		L127.5,86.3z M112.8,80.1c1.3,1.5,1.8,3,1.8,5c0,0.3,0,0.3,0.3,0.5c1.5,1.5,3.5,1.8,5.5,1.3l0.3-0.3c0.8-3.3-0.3-7.3-2-10
		c0-0.3-0.3-0.3-0.5-0.5c-2-0.5-4-0.3-6,0.5c-0.3,0-0.3,0.3,0,0.3C112.8,77.6,113,78.6,112.8,80.1C112.5,79.8,112.5,79.8,112.8,80.1
		L112.8,80.1z M119.3,76.8c1.8,2.8,2.3,6.3,1.8,9.5c0,0.3,0,0.3,0.3,0.5c1.5,0.8,3,1,4.3,0c0.3-0.3,0.5-0.5,0.5-0.8
		c0-4.5-2.5-7.5-6.3-9.8C119,76.3,119,76.3,119.3,76.8L119.3,76.8z M109.8,77.3c-3,2.5-4.5,4.8-5,8.5c0,0.5,0,0.5,0.3,0
		c0.5-0.8,0.8-1.8,1.5-2.3c1.3-1.5,3-2.8,4.5-3.5c0.8-0.3,1-1.3,0.5-2l0,0l-0.3-0.3C111.3,76.8,110.8,76.8,109.8,77.3L109.8,77.3z
		 M108.3,93.3c0.3-1.3,0-2,1.3-2.8l0.3-0.3c0.5-2,1.5-3.8,3.5-4.8c0.3,0,0.3-0.5,0.3-0.8c0-1.5-0.3-3-1.3-4c0,0-0.3-0.3-0.5,0
		c-2.5,1.3-4.3,3-5.8,5.3c-1.8,2.8,0,5.5,1.8,7.8C108,93.6,108.3,93.6,108.3,93.3C108.3,93.6,108.3,93.6,108.3,93.3L108.3,93.3z
		 M121.3,93.3c0.5,0,2-0.3,2.5-0.8c1-1.5,1.8-3,2.3-4.8c0,0,0-0.3-0.3-0.3c0,0,0,0-0.3,0c-1.3,0.8-2.8,0.8-4,0
		c-0.3-0.3-0.8-0.3-1-0.5c0,0-0.3,0-0.5,0c-2.3,0.8-4.3,0.3-6-1.3c0,0-0.3,0-0.5,0c-1.3,0.8-3,2.5-3,4.3c0,0.3,0,0.3,0.3,0.3
		C114,93.1,117.5,94.1,121.3,93.3L121.3,93.3z M109.3,94.6c3.5,3.3,9.5,2.3,13-0.3c0,0,0,0,0-0.3c0,0,0,0-0.3,0
		c-4.3,0.8-8,0-11.3-2.8c-0.5-0.5-1-0.5-1.3,0.3l-0.5,1.3C108.8,93.6,108.8,94.1,109.3,94.6L109.3,94.6z"/>
	<path class="st3" d="M98.3,75.1h2.8c0,0,0.3,0,0.3,0.3l0,0c0,0,0,0.3-0.3,0.3h-2.8C98,75.3,98,75.3,98.3,75.1L98.3,75.1
		C98,75.1,98,75.1,98.3,75.1z"/>
	<ellipse transform="matrix(1 -1.745320e-03 1.745320e-03 1 -0.1308 0.2297)" class="st3" cx="131.5" cy="75.1" rx="1.5" ry="0.3"/>
	<path class="st3" d="M114.3,85.1c0-2-0.3-3.5-1.8-5v-0.3c0.3-1.3,0-2-0.8-3v-0.3c2-0.8,4-0.8,6-0.5c0.3,0,0.5,0.3,0.5,0.5
		c1.8,2.8,2.8,6.8,2,10l-0.3,0.3c-2,0.8-4,0.3-5.5-1.3C114.3,85.3,114.3,85.3,114.3,85.1L114.3,85.1z"/>
	<path class="st3" d="M121,86.3c0.5-3,0-6.8-1.8-9.5c-0.3-0.5-0.3-0.5,0.3-0.3c3.8,2,6.3,5.3,6.3,9.8c0,0.3-0.3,0.5-0.5,0.8
		c-1.5,0.8-3,0.8-4.3,0C121,86.6,120.8,86.6,121,86.3L121,86.3z"/>
	<path class="st3" d="M105,85.8c0.3-3.8,1.8-6,5-8.5c0.8-0.5,1.3-0.5,1.8,0.3l0.3,0.3c0.5,0.8,0,1.5-0.5,2l0,0
		c-1.8,0.8-3.3,2-4.5,3.5c-0.5,0.8-1,1.5-1.5,2.3C105,86.3,104.8,86.3,105,85.8L105,85.8z"/>
	<path class="st3" d="M99.8,79.8c0.8,0,1.5,0,1.5,0.3s-0.8,0.3-1.5,0.3s-1.5,0-1.5-0.3S99,79.8,99.8,79.8z"/>
	<path class="st3" d="M133,79.8L133,79.8C133.3,80.1,133.3,80.1,133,79.8c-0.8,0.3-1.8,0.3-2.5,0.3c-0.3,0-0.3,0,0-0.3
		C131,79.6,131.8,79.6,133,79.8C132.8,79.8,132.8,79.8,133,79.8z"/>
	<path class="st3" d="M109.8,90.6c-1.3,0.8-1,1.5-1.3,2.8l-0.3,0.3l0,0c-1.8-2.3-3.5-5-1.8-7.8c1.3-2.3,3.3-4,5.8-5.3
		c0.3,0,0.3,0,0.5,0c1,1.3,1.5,2.5,1.3,4c0,0.5,0,0.8-0.3,0.8c-1.8,1.3-3,2.8-3.5,4.8C109.8,90.3,109.8,90.6,109.8,90.6L109.8,90.6z
		"/>
	<path class="st3" d="M98.3,84.8h2.5c0,0,0.3,0,0.3,0.3l0,0c0,0,0,0.3-0.3,0.3h-2.5C98,85.1,98,85.1,98.3,84.8L98.3,84.8
		C98,84.8,98,84.8,98.3,84.8z"/>
	<path class="st3" d="M121.3,93.3c-4,0.8-7.5-0.3-10.5-2.8l-0.3-0.3c0-1.5,1.8-3.3,3-4.3c0,0,0.3,0,0.5,0c1.8,1.5,3.8,2,6,1.3
		c0,0,0.3,0,0.5,0c0.5,0,0.8,0.3,1,0.5c1.5,0.8,2.8,0.5,4,0h0.3c0,0,0,0,0,0.3c-0.5,1.8-1.3,3.3-2.3,4.8
		C123.3,93.3,121.8,93.3,121.3,93.3L121.3,93.3z"/>
	<path class="st3" d="M98.3,89.8L98.3,89.8C98.3,89.6,98.3,89.6,98.3,89.8l2.5-0.3c0,0,0,0,0,0.3l0,0c0,0,0,0-0.3,0H98.3L98.3,89.8z
		"/>
	
		<ellipse transform="matrix(2.792217e-02 -0.9996 0.9996 2.792217e-02 37.965 218.9826)" class="st3" cx="131.6" cy="90" rx="0.3" ry="1.5"/>
	<path class="st3" d="M122.3,94.3c-3.5,2.8-9.5,3.8-13,0.3c-0.5-0.5-0.5-1.3-0.5-1.8l0.5-1.3c0.3-0.8,0.8-0.8,1.3-0.3
		c3.3,2.8,7,3.5,11.3,2.8C122,93.8,122.3,93.8,122.3,94.3C122.3,94.1,122.3,94.1,122.3,94.3L122.3,94.3z"/>
	<path class="st3" d="M98.3,94.6h2.5c0,0,0.3,0,0.3,0.3l0,0c0,0,0,0.3-0.3,0.3h-2.5C98.3,94.8,98.3,94.8,98.3,94.6L98.3,94.6
		L98.3,94.6z"/>
	
		<ellipse transform="matrix(6.980947e-03 -1 1 6.980947e-03 35.9939 225.5811)" class="st3" cx="131.6" cy="94.7" rx="0.3" ry="1.5"/>
	<path class="st3" d="M100.8,99.3C100.8,99.3,101,99.3,100.8,99.3L100.8,99.3C100.8,99.6,100.8,99.6,100.8,99.3l-2.5,0.3l0,0l0,0
		l0,0L100.8,99.3L100.8,99.3z"/>
	<path class="st3" d="M130.3,99.3l2.3,0.3l0,0l0,0l0,0L130.3,99.3C130.3,99.6,130.3,99.6,130.3,99.3L130.3,99.3L130.3,99.3
		L130.3,99.3z"/>
	<path class="st3" d="M101.8,106.1h27.5c0.3,0,0.3,0.3,0.3,0.3l0,0c0,0.3-0.3,0.3-0.3,0.3h-27.5
		C101.5,106.6,101.5,106.3,101.8,106.1L101.8,106.1L101.8,106.1z"/>
	
		<ellipse transform="matrix(2.966381e-02 -0.9996 0.9996 2.966381e-02 -14.2487 203.7537)" class="st3" cx="97.8" cy="109.2" rx="0.3" ry="1.8"/>
	<path class="st3" d="M106.8,141.6c-0.3,0-0.5-0.3-0.5-0.5v-21.3c0-5,4-9.3,9-9.3l0,0c5,0,9,4,9,9.3l0,0v21.3c0,0.3-0.3,0.5-0.5,0.5
		H106.8L106.8,141.6z M108.3,139.6h14c0.3,0,0.5-0.3,0.5-0.5v-18.5c0-4.8-3.3-8.5-7-8.5l0,0h-1c-3.8,0-7,3.8-7,8.5v18.5
		C107.8,139.6,108,139.6,108.3,139.6L108.3,139.6z"/>
	<path class="st1" d="M108.3,139.6c-0.3,0-0.5-0.3-0.5-0.5l0,0v-18.5c0-4.8,3-8.5,7-8.5h1c3.8,0,7,3.8,7,8.5l0,0v18.5
		c0,0.3-0.3,0.5-0.5,0.5H108.3L108.3,139.6z M109,138.6h12.5l0,0v-18c0-4-2.8-7-6-7H115c-3.3,0-6,3.3-6,7l0,0L109,138.6
		C108.8,138.6,109,138.6,109,138.6z"/>
	<path class="st3" d="M109,138.6L109,138.6v-18c0-4,2.8-7,6-7h0.5c3.3,0,6,3.3,6,7l0,0v18l0,0H109z"/>
	<path class="st3" d="M96.5,113.9L96.5,113.9C96.5,113.9,96.5,113.6,96.5,113.9l2.8-0.3c0,0,0.3,0,0.3,0.3l0,0c0,0,0,0.3-0.3,0.3
		L96.5,113.9C96.5,114.1,96.5,114.1,96.5,113.9z"/>
	<path class="st3" d="M96.5,118.6h2.8c0,0,0.3,0,0.3,0.3l0,0c0,0,0,0.3-0.3,0.3h-2.8C96.5,119.1,96.5,118.9,96.5,118.6L96.5,118.6
		C96.5,118.9,96.5,118.6,96.5,118.6z"/>
	<ellipse transform="matrix(1 -5.235820e-03 5.235820e-03 1 -0.6459 0.5136)" class="st3" cx="97.8" cy="123.6" rx="1.8" ry="0.3"/>
	<path class="st3" d="M96.5,128.6L96.5,128.6C96.5,128.6,96.5,128.4,96.5,128.6l2.8-0.3c0,0,0.3,0,0.3,0.3l0,0c0,0,0,0.3-0.3,0.3
		L96.5,128.6C96.5,128.9,96.5,128.6,96.5,128.6z"/>
	<path class="st3" d="M96.5,133.4h2.8c0,0,0.3,0,0.3,0.3l0,0c0,0,0,0.3-0.3,0.3h-2.8C96.5,133.6,96.5,133.6,96.5,133.4L96.5,133.4
		L96.5,133.4z"/>
	<path class="st3" d="M96.5,138.1h2.8c0,0,0.3,0,0.3,0.3l0,0c0,0,0,0.3-0.3,0.3h-2.8C96.5,138.6,96.5,138.4,96.5,138.1L96.5,138.1
		C96.5,138.4,96.5,138.1,96.5,138.1z"/>
	<path class="st3" d="M101.8,144.6h27.5c0.3,0,0.3,0.3,0.3,0.3l0,0c0,0.3-0.3,0.3-0.3,0.3h-27.5
		C101.5,145.1,101.5,144.9,101.8,144.6L101.8,144.6C101.5,144.6,101.5,144.6,101.8,144.6z"/>
	
		<ellipse transform="matrix(1.745296e-03 -1 1 1.745296e-03 -53.4818 241.6548)" class="st3" cx="94.3" cy="147.6" rx="0.3" ry="1.5"/>
	<path class="st3" d="M119.5,159.6h1.8c0.3,0,0.5,0,0.5,0.5v0.5c0,0.3,0,0.5-0.5,0.5h-4.5c0,0-0.3,0-0.3-0.3c0,0,0,0,0-0.3
		c1.3-1.3,3.5-4.3,3.3-6c0-0.3-0.3-0.5-0.5-0.8c-0.8-0.3-1,0.8-1,1.3c0,0,0,0.3-0.3,0.3c-0.3,0-0.8,0-1,0c-0.3,0-0.3-0.3-0.3-0.3
		c0-3.5,4.5-3.5,4.8-0.5c0,1.8-1,3.3-2.3,4.5C119.3,159.4,119.3,159.6,119.5,159.6C119.3,159.6,119.3,159.6,119.5,159.6L119.5,159.6
		z"/>
	<path class="st3" d="M127,156.9c0.5,0.5,0.8,1,0.8,1.8c0,3.3-4.5,3.5-5,0.3c0-0.3,0-0.3,0.3-0.3c1.5-0.5,1.3,0.8,2.3,1
		c1.3,0.3,1.8-2,0-2.3c-0.3,0-0.3,0-0.3-0.3c-0.5-1.3,2.5-1,1.3-3c-0.3-0.3-0.8-0.5-1-0.3c0,0,0,0-0.3,0.3c-0.5,0.5-1,0.8-1.5,0.5
		c-0.3,0-0.3,0-0.3-0.3c0-2.5,4-3,4.8-0.5c0.3,0.8,0,1.5-0.8,2.3C126.8,156.6,126.8,156.6,127,156.9L127,156.9z"/>
	<path class="st3" d="M107.3,159.6h1.5c0.5,0,0.8,0.3,0.8,0.5l0,0c0,0.5-0.3,0.8-0.8,0.8h-4.5c0,0-0.3,0-0.3-0.3c0,0,0,0,0-0.3
		c1.3-1.5,3-3.8,3.5-5.5c0-0.5,0-0.8-0.5-1c-0.5-0.3-0.8,0-1,0.5c0,0.3-0.3,0.5-0.3,0.8s-0.3,0.3-0.3,0.3c-0.3,0-0.8,0-1,0
		c-0.3,0-0.3-0.3-0.3-0.3c0-3.8,5.5-3.5,4.8,0.5c-0.3,1.3-1,2.5-2,3.5C106.8,159.1,106.8,159.4,107.3,159.6L107.3,159.6L107.3,159.6
		z"/>
	<path class="st3" d="M113,161.1c-1.5,0-2.5-2-2.5-4.3l0,0c0-2.5,1.3-4.5,2.5-4.5l0,0c1.5,0,2.5,2,2.5,4.3l0,0
		C115.5,159.1,114.5,161.1,113,161.1z M113,159.6c0.5,0,0.8-1.3,0.8-3l0,0c0-1.5-0.5-3-0.8-3l0,0c-0.5,0-0.8,1.3-0.8,3l0,0
		C112.3,158.4,112.5,159.6,113,159.6z"/>
	
		<ellipse transform="matrix(3.490556e-03 -1 1 3.490556e-03 -44.1404 269.4702)" class="st1" cx="113.1" cy="156.9" rx="3" ry="0.8"/>
	<path class="st3" d="M114.8,199.7v-3.8c0,0,0-0.3-0.3-0.3c-7.5,0-15,0-22.5,0c-3.3,0-6.5-2.5-7.5-5.8c-0.3-0.8-0.5-2-0.5-4
		c0-3.8,0-7.5,0-11c0-0.3,0.3-0.5,0.5-0.5h37.8c0.3,0,0.5,0.3,0.5,0.5c1,6.5-3.5,9.3-9.3,10c-0.3,0-0.3,0-0.5-0.3l0,0v-1.8
		c0-0.3,0-0.3-0.3-0.3l0,0H92.3c-0.3,0-0.3,0.3-0.3,0.3l0,0v4.5c0,0.3,0.3,0.3,0.3,0.3c6.8,0,13.8,0,20.5,0c3.3,0,5.5,0.3,7.5,2.5
		c2.8,2.8,2.5,5.8,2.3,9.3c0,0.3,0.3,0.5,0.5,0.5l0,0h3.8c0.3,0,0.3-0.3,0.3-0.3c0-5.5,0-11,0-16.5c0-2,0.3-3.5,0.5-4.5
		c1.3-3.3,4.5-5.5,8-5.3c3,0,5.8,0,8.8,0c0,0,0.3,0,0.3,0.3l0.3,34c0,0.3-0.3,0.3-0.3,0.3l0,0c-3.5-0.5-6-2.3-7.3-5.5
		c-0.3-1-0.5-2.3-0.5-3.8c0-5.3,0-11,0-16.8c0-0.5-0.3-0.8-0.8-0.8h-0.3c-0.3,0-0.5,0.3-0.5,0.5l0,0c0,6.3,0,12.5,0,18.5
		c0,1.8-0.8,3.5-2.3,5c-2,2-4,2.5-7.3,2.5c-14.5,0-28.8,0-43,0c-0.3,0-0.3,0.3-0.3,0.3l0,0c0,2.8,0.5,5.8-0.8,8.3
		c-1.3,2.8-3.8,4.3-7,4.8c-0.3,0-0.3,0-0.3-0.3l0,0c0-5.3,0-10.5,0.3-15.5c0-4.5,6.8-5.3,9.8-5.3C94,199.9,104.3,199.9,114.8,199.7
		C114.8,199.9,114.8,199.9,114.8,199.7L114.8,199.7L114.8,199.7z"/>
	<path class="st3" d="M64,174.4c3.3,0.3,6,2.3,7,5c0.5,1,0.5,2.8,0.5,4.8c0,12.3,0,24.5,0,36.8c0,0.3,0,0.3-0.3,0.3l0,0
		c-3.3-0.5-6-2.3-7.3-5.5c-0.3-1-0.5-2.8-0.5-5.3c0-11.8,0-23.8,0-35.8C63.7,174.4,63.7,174.4,64,174.4L64,174.4L64,174.4z"/>
	<path class="st3" d="M198.1,203.2c0-1.8,0-3.8,0-5.5c0-4.5,3.3-8.3,8-8.5c0.3,0,0.3,0,0.3,0.3c0,4.8,0,9.5,0,14.3
		c0,4.8-3.8,8.3-8.5,8.3c-2.8,0-5.5,0-8.3,0c-0.3,0-0.5-0.3-0.5-0.5v-37c0,0,0-0.3,0.3-0.3l0,0c4.3,0.3,7.8,3.5,7.8,8c0,7,0,14,0,21
		c0,0.3,0.3,0.5,0.5,0.5h0.5C197.9,203.7,198.1,203.4,198.1,203.2L198.1,203.2z"/>
	<path class="st3" d="M34.5,178.4c-0.5,2-3.5,2.3-4.8,0.5c-2-3,2-6.3,4.3-3.5l0.3,0.3l0.3,0.5l0.3,0.3l0,0c0.3-0.3,0.3-0.5,0.5-0.8
		c2-2.3,5.3-0.8,5,2.3c-0.3,2.8-4.3,3.3-5.3,0.8C35,178.4,34.7,178.2,34.5,178.4L34.5,178.4L34.5,178.4z"/>
	<path class="st3" d="M177.8,190.7c0.5,0,0.8-0.3,0.8-0.8v-0.3c0-0.3-0.3-0.5-0.5-0.5c-1.8,0-4,0.3-5.8-0.3c-3.3-1-5.3-3.5-6-7.3
		c0-0.5,0-0.5,0.5-0.5c3.5,0,7.3,0,11,0c4.5,0,8.3,3.5,8.5,8c0,3,0,6,0,9c0,0.3-0.3,0.5-0.5,0.5h-14.8l-0.3-0.3v-7.5
		c0-0.3,0.3-0.3,0.3-0.3H177.8L177.8,190.7z"/>
	<circle class="st3" cx="202.6" cy="184.9" r="2.8"/>
	<path class="st3" d="M43.7,211.4h-9c-0.3,0-0.5-0.3-0.5-0.5l0,0l0.3-20.3c0-0.5-0.3-0.5-0.5-0.5h-0.5c-0.3,0-0.5,0.3-0.5,0.5
		c0,3,0,5.8,0,8.8c0,3.3-0.3,5.3-2.5,7.5c-1.3,1.3-3,2-5.3,2.3c-0.3,0-0.3,0-0.3-0.3l0,0c0-6,0-12,0-18c0-2.8,0.8-4.8,2.5-6.5
		c2-2,4-2.3,7-2.3c2.8,0,5.3,0,8,0c0,0,0.3,0,0.3,0.3l0,0v20.3c0,0.5,0.3,0.5,0.5,0.5h0.3c0.3,0,0.5-0.3,0.5-0.5c0-0.8,0-1.5,0-2.5
		c1-9,14.5-10,17-1.5c0.3,1,0.5,3,0.5,5.5c0,2.5,0,5.5,0,8.3c0,1.8-0.3,3-0.5,4c-3.3,8.5-17.3,6.5-17-3.3c0-0.8,0-1.3,0-1.8
		C44,211.7,43.7,211.4,43.7,211.4L43.7,211.4L43.7,211.4z M53.5,201.7c0-0.3-0.3-0.5-0.5-0.5h-0.5c-0.3,0-0.5,0.3-0.5,0.5l0,0v12
		c0,0.3,0.3,0.5,0.5,0.5H53c0.3,0,0.5-0.3,0.5-0.5V201.7z"/>
	<path class="st3" d="M177.6,208.4C177.6,208.4,177.3,208.2,177.6,208.4L177.6,208.4c-7.8-0.3-15.5,0-23-0.3c-5,0-8-4.8-7.8-9.3
		c0.3-4.8,3.8-8,8.8-8c4.3,0,8.5,0,13,0c0.3,0,0.3,0.3,0.3,0.3l0,0v7.3c0,0.3-0.3,0.5-0.5,0.5h-13c-0.5,0-0.5,0.3-0.5,0.5v0.3
		c0,0.5,0.3,0.5,0.5,0.5c7.5,0,15,0,22.3,0c3.3,0,6,2,7.3,4.8c0.5,1,0.8,2.8,0.8,5c0,3.3,0,6.8,0,10.3c0,0.3-0.3,0.3-0.3,0.3H83.8
		c0,0-0.3,0-0.3-0.3c-1.3-6.8,3.5-9.5,9.3-10.3c0,0,0.3,0,0.3,0.3l0,0v1.8c0,0.3,0.3,0.5,0.5,0.5l0,0h83.8c0,0,0.3,0,0.3-0.3l0,0
		V208.4L177.6,208.4z"/>
	<path class="st1" d="M52.5,201.2H53c0.3,0,0.5,0.3,0.5,0.5v12c0,0.3-0.3,0.5-0.5,0.5h-0.5c-0.3,0-0.5-0.3-0.5-0.5v-12
		C52,201.4,52.2,201.2,52.5,201.2z"/>
	<path class="st2" d="M230.4,216.4L116,293.8h-0.3L0.7,215.9c-0.5-0.3-0.5-0.5-0.5-1l0.5-10.5c0-0.3,0.3-0.3,0.3-0.3
		C36,228,71,251.5,105.8,275.3c0.3,0.3,0.5,0.5,0.5,0.8c1.3,7.3,8.8,11,14.8,6.8c2.3-1.5,3.5-3.8,3.8-6.8c0-0.3,0.3-0.5,0.5-0.8
		c34.8-23.5,69.6-47,104.3-70.6h0.3c0,0,0,0,0,0.3l0.5,10.5C230.9,215.9,230.6,216.4,230.4,216.4L230.4,216.4z"/>
	<path class="st3" d="M134,226.5c-0.3,0.3-0.5,0.8-0.8,1c-1.3,1.3-3.8,1-4.5-0.8c-1.5-3.5,3.8-5.5,5-2c0,0.3,0.3,0.3,0.3,0.3
		s0,0,0.3-0.3c1.3-2.8,5.3-2,5.5,0.8C139.8,228.5,135.8,229.5,134,226.5L134,226.5z"/>
	<path class="st3" d="M114.5,253.7c0.3-1.8,0.3-3.5-1.3-4.8c-2-2-4.3-3.8-4.3-6.3c0-2.3,0-4.5,2.5-5.3c2-0.8,5.8-0.8,6.8,1.5
		c0.5,1,0.3,3.3,0.5,4.5c0,0.3,0,0.5-0.5,0.5h-3c-0.3,0-0.5-0.3-0.5-0.5v-3.3c0-0.3-0.3-0.5-0.5-0.5H114c-1.3,0.8,0,3.8,0.8,4.5
		c1,1,2.3,2.3,3.3,3.3c1.5,1.5,1.5,3.3,1.3,5.8c-0.3,2-1.3,3-3.3,3.5c-2,0.5-5.5,0.3-6.5-2c-0.5-1.3-0.3-4-0.3-5.8
		c0-0.3,0-0.3,0.3-0.3h3.3c0.3,0,0.3,0.3,0.3,0.3v4.3c0,0.3,0.3,0.5,0.5,0.5h0.3C114.3,254.2,114.3,254,114.5,253.7L114.5,253.7z"/>
	<path class="st3" d="M130.3,254.2L130.3,254.2c0.5,0,0.5-0.3,0.5-0.5V249c0-0.3,0-0.3,0.3-0.3h3.5l0.3,0.3l0,0c0,1.5,0,3,0,4.5
		c0,4.3-9.3,4.8-9.5-0.3c0-5.8-0.3-10.3,0-13c0-4.5,9-4.8,9.3-1.3c0.3,1.5,0.3,3,0.3,4.5c0,0.3,0,0.3-0.3,0.3H131c0,0-0.3,0-0.3-0.3
		v-3.3c0-0.3,0-0.5-0.3-0.5h-0.3c-0.3,0-0.5,0-0.5,0.5l0,0v13.5C129.8,254.2,129.8,254.2,130.3,254.2L130.3,254.2z"/>
	<path class="st3" d="M96.3,250.5L96.3,250.5c0,2.3,0,4.3,0,6.3c0,0,0,0.3-0.3,0.3l0,0h-4c-0.3,0-0.3,0-0.3-0.3v-19.3
		c0-0.3,0-0.3,0.3-0.3h4c0.3,0,0.3,0,0.3,0.3v4.8c0,1,0.3,1,0.5,0c0.5-1,0.8-2.8,1.3-4.8c0-0.3,0.3-0.3,0.5-0.3h3.3
		c0.3,0,0.3,0.3,0.3,0.3l0,0l-2.3,7.8c-0.3,0.5-0.3,1.3,0,2l2.8,9.5c0,0.3,0,0.3-0.3,0.3l0,0h-4c-0.3,0-0.5-0.3-0.5-0.5l-1.3-6
		C96.5,250.2,96.5,250,96.3,250.5L96.3,250.5z"/>
	<path class="st1" d="M123,275.3c0,4.3-3.3,7.5-7.5,7.5l0,0c-4.3,0-7.5-3.3-7.5-7.5l0,0c0-4.3,3.3-7.5,7.5-7.5l0,0
		C119.8,267.7,123,271,123,275.3L123,275.3z M112.5,273.5c-5.3,2-0.8,8.8,3,5.3c0,0,0.3-0.3,0.5,0c0.5,0.3,1,0.8,1.8,1
		c4,0.8,5.5-4.8,1.5-6.3l-0.3-0.3c1.3-4.8-7-5.5-6,0C112.5,273.3,112.5,273.5,112.5,273.5L112.5,273.5z"/>
	<path class="st3" d="M112.5,273.3c-1-5.5,7.5-4.8,6,0c0,0.3,0,0.3,0.3,0.3c4,1.3,2.5,7-1.5,6.3c-0.5-0.3-1-0.5-1.8-1
		c0,0-0.3,0-0.5,0c-3.5,3.5-8.3-3.3-3-5.3C112.5,273.5,112.5,273.5,112.5,273.3L112.5,273.3z M113.5,274.3c-3,0-3.8,3.8-1.3,4.8
		c1.3,0.5,2.5,0,3-1.3c0,0,0.3-0.3,0.3,0l0,0c0.3,0.3,0.5,0.8,1,1c1,0.8,2,0.8,3,0c2-1.5,0.8-4.5-1.8-4.3c-0.3,0-0.5,0-0.3-0.5
		c2.5-4.5-5.5-5.3-4.3-0.8C113.5,273.5,113.8,273.8,113.5,274.3C113.8,274,113.8,274.3,113.5,274.3L113.5,274.3z"/>
	<path class="st1" d="M113.8,274c0-0.3-0.3-0.5-0.3-0.8c-1.3-4.5,6.8-4,4.3,0.8c-0.3,0.3,0,0.5,0.3,0.5c2.3-0.3,3.5,2.8,1.8,4.3
		c-1,0.8-2,0.8-3,0c-0.3-0.3-0.5-0.8-1-1h-0.3l0,0c-0.8,1.5-1.8,2-3,1.3C109.8,278,110.5,274.3,113.8,274
		C113.8,274.3,113.8,274.3,113.8,274L113.8,274z M116.3,275.3c0-0.3-0.3-0.5-0.5-0.5l0,0c-0.3,0-0.5,0.3-0.5,0.5l0,0
		c0,0.3,0.3,0.5,0.5,0.5C116,275.8,116.3,275.5,116.3,275.3z"/>
	<circle class="st3" cx="115.8" cy="275.3" r="0.5"/>
</g>
</svg>
