<?xml version="1.0" encoding="utf-8"?>
<!-- Generator: Adobe Illustrator 27.9.0, SVG Export Plug-In . SVG Version: 6.00 Build 0)  -->
<svg version="1.1" id="Layer_1" xmlns="http://www.w3.org/2000/svg" xmlns:xlink="http://www.w3.org/1999/xlink" x="0px" y="0px"
	 viewBox="0 0 900 689.35" style="enable-background:new 0 0 900 689.35;" xml:space="preserve">
<g>
	<path d="M900,389.38c0,7,0,14,0,21c-0.96,6.03-1.86,12.06-2.88,18.08c-12.55,73.87-78.65,131.06-153.53,131.79
		c-63.94,0.62-127.89,0.19-191.83,0.22c-1.94,0-3.88,0-6.28,0c0,43.28,0,85.96,0,128.88c-49.49,0-98.52,0-148.27,0
		c0-43.06,0-85.76,0-128.8c-2.69,0-4.66,0-6.64,0c-73.81,0-147.63-0.37-221.44,0.1C87.5,561.17,18.7,502.57,3.77,427.38
		c-1.51-7.61-2.53-15.33-3.77-22.99c0-8,0-16,0-24c0.3-1.09,0.7-2.17,0.9-3.28c1.6-8.98,2.35-18.21,4.88-26.92
		c15.39-53.06,49.51-89.39,100.13-110.68c2.85-1.2,5.76-2.29,7.77-3.08c-2.33-46.1,13.95-83.06,51.61-108.32
		c46.69-31.3,93.24-27.91,137.62,6.29C360.06,22.43,474.18-15.94,569.18,5.83c48,11,89.1,34.59,122.64,70.69
		c43.37,46.69,64.41,102.41,65.32,166.07c0.95,0.24,1.72,0.53,2.52,0.61c16.19,1.74,31.66,6.24,46.31,13.13
		c47.84,22.51,78.72,59.05,90.4,111.04C898,374.62,898.81,382.04,900,389.38z M166.7,270.39c-6.67,1.36-12.83,2.72-19.03,3.86
		c-65.73,11.99-108.25,70.83-98.84,136.84c8.2,57.45,59.19,101.9,117.35,102.03c68.76,0.15,137.51,0.1,206.27,0.14
		c8.11,0,16.22,0,24.66,0c0-33.14,0-65.71,0-99.02c-31.79,0-63.38,0-96.02,0c57.94-60.52,115.01-120.12,172.17-179.82
		c56.22,60.01,112,119.56,168.75,180.13c-33.1,0-64.52,0-96.31,0c0,33.04,0,65.71,0,98.56c1.05,0.06,1.86,0.14,2.67,0.14
		c61.93,0,123.87,0.09,185.8-0.09c9.11-0.03,18.41-0.41,27.3-2.21c57.02-11.57,95.6-63.55,90.47-121.28
		c-5.36-60.27-57.24-105.45-117.88-102.81c-8.91,0.39-17.85,0.05-27.2,0.05c0.29-4.28,0.55-7.25,0.68-10.22
		c0.94-21.59,3.1-43.12-0.33-64.77c-7.22-45.69-27.74-84.28-62.12-114.88c-44.25-39.39-96.47-55.82-155.18-47.66
		C426.09,58.24,377.93,91.7,346.7,148c-8.86,15.97-14.05,34.01-20.66,51.19c-2.99,7.78-5.36,15.79-8.27,24.44
		c-9.77-13.9-18.77-27.1-28.17-39.99c-24.29-33.3-71.88-39.17-103.27-12.45c-18.06,15.37-27.26,35.1-24.99,59.15
		C162.57,243.56,164.83,256.68,166.7,270.39z"/>
</g>
</svg>
